<?xml version="1.0" standalone="no"?>
<!DOCTYPE svg PUBLIC "-//W3C//DTD SVG 1.1//EN" "http://www.w3.org/Graphics/SVG/1.1/DTD/svg11.dtd" >
<svg xmlns="http://www.w3.org/2000/svg" xmlns:xlink="http://www.w3.org/1999/xlink" version="1.1">
<metadata>
Created by FontForge 20170731 at Sun Oct  3 12:48:36 2021
 By Aleksey,,,
</metadata>
<defs>
<font id="Sansa-Bold" horiz-adv-x="625" >
  <font-face 
    font-family="Sansa"
    font-weight="400"
    font-stretch="normal"
    units-per-em="1000"
    panose-1="2 0 5 0 0 0 0 0 0 0"
    ascent="800"
    descent="-200"
    x-height="547"
    cap-height="750"
    bbox="-16 -188 1449 1024"
    underline-thickness="0"
    underline-position="0"
    unicode-range="U+0020-2122"
  />
<missing-glyph horiz-adv-x="500" 
 />
    <glyph glyph-name=".notdef" horiz-adv-x="500" 
 />
    <glyph glyph-name=".null" horiz-adv-x="0" 
 />
    <glyph glyph-name="nonmarkingreturn" horiz-adv-x="333" 
 />
    <glyph glyph-name="space" unicode=" " horiz-adv-x="266" 
 />
    <glyph glyph-name="exclam" unicode="!" horiz-adv-x="328" 
d="M90 250h148l12 500h-172zM78 0h172v172h-172v-172z" />
    <glyph glyph-name="quotedbl" unicode="&#x22;" horiz-adv-x="523" 
d="M305 547h140l16 203h-172zM78 547h141l15 203h-171z" />
    <glyph glyph-name="numbersign" unicode="#" horiz-adv-x="719" 
d="M156 0h141v141h125v-141h141v141h125v140h-125v188h125v140h-125v141h-141v-141h-125v141h-141v-141h-125v-140h125v-188h-125v-140h125v-141zM297 281v188h125v-188h-125z" />
    <glyph glyph-name="dollar" unicode="$" 
d="M230 -125h125v119q105 9 172 62t67 167q0 90 -44 142.5t-128 75.5l-117 32q-30 7 -50.5 22t-20.5 48q0 41 30 53.5t72 12.5h35q32 0 89 -7.5t87 -15.5h8v144q-26 9 -67.5 16t-77.5 10v111h-125v-111q-98 -9 -164 -60t-66 -153q0 -97 45.5 -146t110.5 -65l117 -31
q33 -9 59.5 -26t26.5 -52q0 -48 -31.5 -65t-77.5 -17h-39q-51 0 -111 10.5t-92 20.5h-8v-145q33 -12 82.5 -21t92.5 -13v-118z" />
    <glyph glyph-name="percent" unicode="%" horiz-adv-x="1031" 
d="M250 328q102 0 152.5 50t50.5 161t-50.5 161t-152.5 50q-103 0 -153 -50t-50 -161t50 -161t153 -50v0zM297 0h82l355 734v16h-82l-355 -734v-16zM781 0q102 0 152.5 50t50.5 161t-50.5 161t-152.5 50t-152.5 -50t-50.5 -161t50.5 -161t152.5 -50v0zM250 414q-42 0 -56 27
t-14 98q0 70 14 97.5t56 27.5q41 0 55.5 -27.5t14.5 -97.5q0 -71 -14.5 -98t-55.5 -27v0zM781 86q-41 0 -55.5 27t-14.5 98q0 70 14.5 97.5t55.5 27.5t56 -27.5t15 -97.5q0 -71 -15 -98t-56 -27v0z" />
    <glyph glyph-name="ampersand" unicode="&#x26;" horiz-adv-x="703" 
d="M344 -8q67 0 139 14t111 29v278h62v140h-312q-39 0 -60.5 19.5t-21.5 58.5q0 44 28.5 61t72.5 17h20q38 0 88.5 -7t83.5 -16h8v144q-30 12 -87.5 20t-92.5 8h-20q-108 0 -190.5 -47.5t-82.5 -155.5q0 -65 28 -102.5t70 -57.5v0q-57 -18 -91 -68t-34 -108
q0 -126 77.5 -176.5t203.5 -50.5v0zM344 141q-48 0 -79 17t-31 65q0 49 29.5 69.5t80.5 20.5h78v-165q-12 -3 -36.5 -5t-41.5 -2v0z" />
    <glyph glyph-name="quotesingle" unicode="'" horiz-adv-x="297" 
d="M78 547h141l15 203h-171z" />
    <glyph glyph-name="parenleft" unicode="(" horiz-adv-x="438" 
d="M227 -125h148v16q-94 82 -125 188t-31 218v31q0 111 31 217.5t125 188.5v16h-148q-86 -62 -133 -173t-47 -249v-31q0 -139 47 -249.5t133 -172.5v0z" />
    <glyph glyph-name="parenright" unicode=")" horiz-adv-x="438" 
d="M63 -125h148q84 62 132 172.5t48 249.5v31q0 138 -48 249t-132 173h-148v-16q93 -82 124.5 -188.5t31.5 -217.5v-31q0 -112 -31.5 -218t-124.5 -188v-16z" />
    <glyph glyph-name="asterisk" unicode="*" horiz-adv-x="500" 
d="M195 336h110v113l97 -56l55 93l-99 57l99 57l-55 93l-97 -56v113h-110v-113l-97 56l-55 -93l98 -57l-98 -57l55 -93l97 56v-113z" />
    <glyph glyph-name="plus" unicode="+" 
d="M242 148h141v149h148v141h-148v148h-141v-148h-148v-141h148v-149z" />
    <glyph glyph-name="comma" unicode="," horiz-adv-x="328" 
d="M0 -125h121l129 234v63h-172z" />
    <glyph glyph-name="hyphen" unicode="-" horiz-adv-x="406" 
d="M31 297h344v141h-344v-141z" />
    <glyph glyph-name="period" unicode="." horiz-adv-x="328" 
d="M78 0h172v172h-172v-172z" />
    <glyph glyph-name="slash" unicode="/" horiz-adv-x="582" 
d="M31 -125h157l363 859v16h-156l-364 -859v-16z" />
    <glyph glyph-name="zero" unicode="0" 
d="M313 -8q140 0 210.5 86t70.5 297q0 216 -70.5 299.5t-210.5 83.5q-141 0 -211.5 -83.5t-70.5 -299.5q0 -211 70.5 -297t211.5 -86v0zM313 141q-65 0 -87.5 46.5t-22.5 187.5t22.5 187.5t87.5 46.5q63 0 86 -46.5t23 -187.5t-23 -187.5t-86 -46.5v0z" />
    <glyph glyph-name="one" unicode="1" 
d="M266 0h172v750h-110l-250 -102v-156h8l180 71v-563z" />
    <glyph glyph-name="two" unicode="2" 
d="M55 0h508v148h-329v8q0 32 18 54t45 40l86 59q74 51 119 96.5t45 133.5q0 99 -61.5 155t-172.5 56h-235v-148h188q58 0 83.5 -15t25.5 -56t-29 -68.5t-49 -40.5l-102 -70q-79 -56 -109.5 -107.5t-30.5 -127.5v-117z" />
    <glyph glyph-name="three" unicode="3" 
d="M78 0h235q114 0 189.5 61.5t75.5 172.5q0 75 -29.5 116.5t-80.5 60.5q48 33 71.5 76t23.5 83q0 108 -71 144t-179 36h-227v-148h211q41 0 67.5 -13t26.5 -54q0 -31 -22 -55.5t-51 -41.5h-162v-125h141q46 0 77.5 -16t31.5 -63t-31.5 -66.5t-77.5 -19.5h-219v-148z" />
    <glyph glyph-name="four" unicode="4" 
d="M355 0h172v121h67v149h-67v136h-172v-136h-136q58 105 98 228t58 252h-187q-12 -111 -47.5 -255t-93.5 -261v-113h308v-121z" />
    <glyph glyph-name="five" unicode="5" 
d="M63 0h218q129 0 213 56.5t84 185.5q0 123 -73 179t-196 56h-67v125h305v148h-469v-422h188q58 0 99 -14t41 -72q0 -56 -35 -75t-90 -19h-218v-148z" />
    <glyph glyph-name="six" unicode="6" 
d="M305 -8q120 0 196.5 65t76.5 185q0 117 -58.5 183.5t-175.5 66.5q-34 0 -65.5 -6t-59.5 -19v10q0 58 40.5 91.5t99.5 33.5h164v148h-140q-147 0 -241.5 -75.5t-94.5 -221.5v-211q0 -117 70 -183.5t188 -66.5v0zM313 141q-48 0 -71 27t-23 74v95q22 8 46 11.5t48 3.5
q52 0 72.5 -30t20.5 -80t-23.5 -75.5t-69.5 -25.5v0z" />
    <glyph glyph-name="seven" unicode="7" 
d="M172 0h172v94q0 187 62.5 314t156.5 233v109h-500v-148h320q-85 -83 -148 -216.5t-63 -291.5v-94z" />
    <glyph glyph-name="eight" unicode="8" 
d="M301 -8h23q102 0 182 56.5t80 162.5q0 66 -28.5 111t-78.5 73l21 19q26 23 48 63t22 82q0 111 -67.5 155t-178.5 44h-23q-94 0 -170 -47t-76 -152q0 -60 26.5 -102.5t71.5 -68.5l-28 -21q-37 -27 -61.5 -67t-24.5 -89q0 -120 71 -169.5t191 -49.5v0zM354 446l-57 23
q-33 12 -55.5 25.5t-22.5 52.5q0 32 24.5 47t57.5 15h23q32 0 57 -15t25 -47q0 -24 -8 -43t-23 -35zM301 141q-42 0 -66 18t-24 60q0 23 7 45t24 41l30 32l52 -21q35 -14 62.5 -32.5t27.5 -64.5q0 -39 -24.5 -58.5t-65.5 -19.5h-23z" />
    <glyph glyph-name="nine" unicode="9" 
d="M102 0h140q147 0 241.5 75t94.5 222v203q0 117 -70.5 183.5t-187.5 66.5q-120 0 -196.5 -65t-76.5 -185q0 -117 58.5 -183.5t175.5 -66.5q33 0 64.5 5.5t60.5 19.5v-2q0 -59 -41 -92t-99 -33h-164v-148zM313 391q-54 0 -74 29.5t-20 79.5q0 49 23 75.5t71 26.5
q46 0 69.5 -27.5t23.5 -74.5v-95q-23 -8 -47 -11t-46 -3v0z" />
    <glyph glyph-name="colon" unicode=":" horiz-adv-x="328" 
d="M78 375h172v172h-172v-172zM78 0h172v172h-172v-172z" />
    <glyph glyph-name="semicolon" unicode=";" horiz-adv-x="328" 
d="M78 375h172v172h-172v-172zM0 -125h121l129 234v63h-172z" />
    <glyph glyph-name="less" unicode="&#x3c;" 
d="M523 82h8v160l-261 125l261 125v160h-8l-429 -222v-125z" />
    <glyph glyph-name="equal" unicode="=" 
d="M94 406h437v141h-437v-141zM94 164h437v141h-437v-141z" />
    <glyph glyph-name="greater" unicode="&#x3e;" 
d="M94 82h8l429 223v125l-429 222h-8v-160l261 -125l-261 -125v-160z" />
    <glyph glyph-name="question" unicode="?" horiz-adv-x="520" 
d="M129 250h172v27l97 114q49 57 69.5 102.5t20.5 84.5q0 84 -52.5 128t-154.5 44h-218v-148h136q47 0 82 -8.5t35 -46.5q0 -30 -13.5 -54.5t-40.5 -54.5l-133 -157v-31zM129 0h172v172h-172v-172z" />
    <glyph glyph-name="at" unicode="@" horiz-adv-x="922" 
d="M473 -102q44 0 97.5 6t89.5 18v105h-8q-36 -9 -86 -14t-93 -5q-141 0 -217 89.5t-76 230.5q0 144 78 232t222 88q123 0 192.5 -59.5t69.5 -182.5q0 -65 -28.5 -114.5t-92.5 -49.5h-12v274h-144q-85 0 -134.5 -52t-49.5 -136q0 -88 48 -130t136 -42h140q120 0 195 65
t75 185q0 176 -109.5 264t-285.5 88q-193 0 -313 -118.5t-120 -311.5q0 -199 113 -314.5t313 -115.5v0zM465 242q-39 0 -56.5 23.5t-17.5 62.5q0 41 16 71.5t58 30.5h35v-188h-35z" />
    <glyph glyph-name="A" unicode="A" horiz-adv-x="750" 
d="M31 0h172q7 34 17 76.5t22 87.5h260q10 -45 19.5 -87.5t17.5 -76.5h188v8q-24 99 -43.5 166t-42.5 146q-36 120 -84.5 252.5t-72.5 177.5h-211q-24 -45 -72.5 -177.5t-83.5 -252.5q-24 -79 -43 -146t-43 -166v-8zM282 313q27 98 52.5 181t40.5 119q15 -36 39.5 -119
t50.5 -181h-183z" />
    <glyph glyph-name="B" unicode="B" horiz-adv-x="680" 
d="M78 0h305q120 0 185 55t65 175q0 62 -29.5 104.5t-76.5 60.5q50 26 70 65t20 87q0 108 -63 155.5t-171 47.5h-305v-750zM250 445v157h109q38 0 58.5 -18.5t20.5 -56.5t-20.5 -60t-58.5 -22h-109zM250 148v165h109q47 0 70.5 -16t23.5 -63q0 -50 -22 -68t-72 -18h-109z
" />
    <glyph glyph-name="C" unicode="C" horiz-adv-x="672" 
d="M398 -8h47q47 0 104.5 13t75.5 22v145h-8q-24 -9 -77 -20t-95 -11h-47q-85 0 -132 55t-47 140v86q0 87 45.5 137t133.5 50q12 0 37 -2.5t34 -4.5v-94h156v219q-39 14 -97.5 22.5t-113.5 8.5q-165 0 -270 -90t-105 -254v-78q0 -168 96 -256t263 -88v0z" />
    <glyph glyph-name="D" unicode="D" horiz-adv-x="758" 
d="M78 0h281q187 0 273.5 94.5t86.5 241.5v94q0 140 -89 230t-271 90h-281v-750zM250 148v454h109q88 0 134 -50.5t46 -137.5v-62q0 -94 -46 -149t-134 -55h-109z" />
    <glyph glyph-name="E" unicode="E" horiz-adv-x="641" 
d="M266 0h312v148h-250q-47 0 -62.5 19.5t-15.5 66.5v71h281v148h-281v149h313v148h-485v-547q0 -94 47 -148.5t141 -54.5v0z" />
    <glyph glyph-name="F" unicode="F" horiz-adv-x="563" 
d="M78 0h172v273h266v149h-266v78q0 47 23 74.5t71 27.5h187v148h-187q-129 0 -197.5 -60.5t-68.5 -189.5v-500z" />
    <glyph glyph-name="G" unicode="G" horiz-adv-x="742" 
d="M406 -8h39q70 0 133.5 15.5t93.5 27.5v379h-266v-148h110v-118q-12 -3 -35 -5t-36 -2h-39q-85 0 -136 55t-51 140v78q0 93 58.5 144t152.5 51q49 0 113.5 -9t120.5 -30h8v149q-56 20 -116 29.5t-118 9.5q-162 0 -280.5 -83t-118.5 -261v-78q0 -168 100 -256t267 -88v0z
" />
    <glyph glyph-name="H" unicode="H" horiz-adv-x="766" 
d="M78 0h172v313h266v-313h172v750h-172v-289h-266v289h-172v-750z" />
    <glyph glyph-name="I" unicode="I" horiz-adv-x="328" 
d="M78 0h172v750h-172v-750z" />
    <glyph glyph-name="J" unicode="J" horiz-adv-x="484" 
d="M31 0h125q123 0 186.5 63.5t63.5 186.5v500h-343v-148h171v-352q0 -53 -20.5 -77.5t-72.5 -24.5h-110v-148z" />
    <glyph glyph-name="K" unicode="K" horiz-adv-x="750" 
d="M78 0h172v316h35l246 -316h203v8l-304 390l286 344v8h-196l-227 -285h-43v285h-172v-750z" />
    <glyph glyph-name="L" unicode="L" horiz-adv-x="563" 
d="M266 0h265v148h-203q-47 0 -62.5 19.5t-15.5 66.5v516h-172v-547q0 -94 47 -148.5t141 -54.5v0z" />
    <glyph glyph-name="M" unicode="M" horiz-adv-x="906" 
d="M78 0h172v480l172 -246h47l187 246v-480h172v750h-172l-207 -285l-199 285h-172v-750z" />
    <glyph glyph-name="N" unicode="N" horiz-adv-x="766" 
d="M78 0h172v445l281 -445h157v750h-172v-445l-282 445h-156v-750z" />
    <glyph glyph-name="O" unicode="O" horiz-adv-x="766" 
d="M383 -8q172 0 258 99t86 272v32q0 172 -86 267.5t-258 95.5q-174 0 -259 -95.5t-85 -267.5v-32q0 -173 85 -272t259 -99v0zM383 141q-97 0 -130.5 62.5t-33.5 159.5v32q0 96 33.5 155t130.5 59q96 0 130 -59t34 -155v-32q0 -97 -34 -159.5t-130 -62.5v0z" />
    <glyph glyph-name="P" unicode="P" horiz-adv-x="672" 
d="M78 0h172v188h86q123 0 210 65t87 224q0 146 -76.5 209.5t-204.5 63.5h-274v-750zM250 336v266h70q70 0 101.5 -25t31.5 -100q0 -83 -31.5 -112t-101.5 -29h-70z" />
    <glyph glyph-name="Q" unicode="Q" horiz-adv-x="766" 
d="M500 -188q35 0 71 9t54 15v109h-8q-19 -6 -50 -12.5t-67 -6.5q-33 0 -47.5 11t-14.5 43v15q144 15 216.5 112t72.5 256v32q0 172 -86 267.5t-258 95.5q-174 0 -259 -95.5t-85 -267.5v-32q0 -159 72 -256t217 -112v-38q0 -76 47.5 -110.5t124.5 -34.5v0zM383 141
q-97 0 -130.5 62.5t-33.5 159.5v32q0 96 33.5 155t130.5 59q96 0 130 -59t34 -155v-32q0 -97 -34 -159.5t-130 -62.5v0z" />
    <glyph glyph-name="R" unicode="R" horiz-adv-x="688" 
d="M78 0h172v223h105q47 -30 87.5 -110.5t49.5 -112.5h188v8q-6 36 -58 131t-110 142q46 29 83.5 79t37.5 140q0 146 -76.5 198t-204.5 52h-274v-750zM250 367v235h70q70 0 101.5 -20t31.5 -90q0 -71 -31.5 -98t-101.5 -27h-70z" />
    <glyph glyph-name="S" unicode="S" horiz-adv-x="641" 
d="M266 -8h39q126 0 207.5 52.5t81.5 178.5q0 90 -44 142.5t-128 75.5l-117 32q-30 7 -50.5 22t-20.5 48q0 41 30 53.5t72 12.5h35q32 0 89 -7.5t87 -15.5h8v144q-33 12 -91 20t-93 8h-39q-114 0 -195.5 -50.5t-81.5 -164.5q0 -97 45.5 -146t110.5 -65l117 -31
q33 -9 59.5 -26t26.5 -52q0 -48 -31.5 -65t-77.5 -17h-39q-51 0 -111 10.5t-92 20.5h-8v-145q40 -15 103 -25t108 -10v0z" />
    <glyph glyph-name="T" unicode="T" horiz-adv-x="609" 
d="M219 0h172v602h203v148h-578v-148h203v-602z" />
    <glyph glyph-name="U" unicode="U" horiz-adv-x="766" 
d="M383 -8q129 0 217 68.5t88 212.5v477h-172v-480q0 -65 -31.5 -97t-101.5 -32q-71 0 -102 32t-31 97v480h-172v-478q0 -143 82 -211.5t223 -68.5v0z" />
    <glyph glyph-name="V" unicode="V" horiz-adv-x="758" 
d="M266 0h226q41 93 112.5 303.5t122.5 438.5v8h-172q-27 -135 -82 -324t-90 -274q-36 85 -87 274t-77 324h-188v-8q47 -228 120 -438.5t115 -303.5v0z" />
    <glyph glyph-name="W" unicode="W" horiz-adv-x="1133" 
d="M227 0h234q26 64 58.5 167t50.5 200q18 -97 49 -197t61 -170h234q52 129 107 330t88 412v8h-187q-18 -135 -56.5 -314t-76.5 -284q-42 105 -82.5 284t-58.5 314h-156q-18 -135 -59 -318.5t-81 -279.5q-39 96 -77.5 279.5t-55.5 318.5h-188v-8q26 -179 80 -390t116 -352v0
z" />
    <glyph glyph-name="X" unicode="X" horiz-adv-x="695" 
d="M16 0h175l150 238l147 -238h192v8l-242 388l218 346v8h-176l-131 -210l-130 210h-192v-8l223 -359l-234 -375v-8z" />
    <glyph glyph-name="Y" unicode="Y" horiz-adv-x="699" 
d="M258 0h172v285l254 457v8h-168l-164 -320l-157 320h-179v-8l242 -457v-285z" />
    <glyph glyph-name="Z" unicode="Z" horiz-adv-x="633" 
d="M39 0h563v148h-329q73 93 180 255.5t149 244.5v102h-547v-148h324q-45 -86 -154.5 -246.5t-185.5 -253.5v-102z" />
    <glyph glyph-name="bracketleft" unicode="[" horiz-adv-x="461" 
d="M94 -125h304v125h-132v625h132v125h-304v-875z" />
    <glyph glyph-name="backslash" unicode="\" horiz-adv-x="582" 
d="M395 -125h156v16l-363 859h-157v-16z" />
    <glyph glyph-name="bracketright" unicode="]" horiz-adv-x="461" 
d="M63 -125h304v875h-304v-125h132v-625h-132v-125z" />
    <glyph glyph-name="asciicircum" unicode="^" 
d="M31 109h157l125 262l125 -262h156v8l-223 430h-117l-223 -430v-8z" />
    <glyph glyph-name="underscore" unicode="_" 
d="M31 -141h563v141h-563v-141z" />
    <glyph glyph-name="grave" unicode="`" horiz-adv-x="641" 
d="M270 625h93v16l-109 140h-133v-15z" />
    <glyph glyph-name="a" unicode="a" horiz-adv-x="672" 
d="M230 -8q44 0 79.5 14.5t73.5 40.5l39 26v-73h172v547h-250q-123 0 -206 -71.5t-83 -194.5v-109q0 -85 45 -132.5t130 -47.5v0zM289 141q-33 0 -47.5 14.5t-14.5 47.5v78q0 64 33.5 94.5t98.5 30.5h63v-208l-31 -18q-24 -15 -51.5 -27t-50.5 -12v0z" />
    <glyph glyph-name="b" unicode="b" horiz-adv-x="672" 
d="M78 0h250q123 0 206 71.5t83 194.5v109q0 84 -45.5 132t-130.5 48q-44 0 -79.5 -14.5t-72.5 -40.5l-39 -26v276h-172v-750zM250 141v208l31 18q24 15 51 27t51 12q32 0 47 -15t15 -47v-78q0 -65 -34.5 -95t-97.5 -30h-63z" />
    <glyph glyph-name="c" unicode="c" horiz-adv-x="555" 
d="M316 -8q41 0 93.5 10t82.5 25v141h-8q-35 -12 -80.5 -19.5t-83.5 -7.5q-53 0 -81 24t-28 77v71q0 43 24.5 68t69.5 25q14 0 27.5 -2.5t19.5 -5.5v-70h140v188q-41 20 -88 29.5t-99 9.5q-109 0 -187.5 -63.5t-78.5 -171.5v-117q0 -117 80 -164t197 -47v0z" />
    <glyph glyph-name="d" unicode="d" horiz-adv-x="672" 
d="M230 -8q44 0 79.5 14.5t73.5 40.5l39 26v-73h172v750h-172v-203h-78q-123 0 -206 -71.5t-83 -194.5v-109q0 -85 45 -132.5t130 -47.5v0zM289 141q-33 0 -47.5 14.5t-14.5 47.5v78q0 64 33.5 94.5t98.5 30.5h63v-208l-31 -18q-24 -15 -51.5 -27t-50.5 -12v0z" />
    <glyph glyph-name="e" unicode="e" horiz-adv-x="609" 
d="M313 -8q37 0 96 6.5t107 24.5v141h-8q-45 -12 -90.5 -17.5t-89.5 -5.5t-80.5 12.5t-36.5 57.5v4h148q88 0 146 36t58 124q0 102 -72.5 141t-174.5 39q-117 0 -197 -59t-80 -176v-105q0 -120 76.5 -171.5t197.5 -51.5v0zM211 316v8q0 50 27.5 70t77.5 20q35 0 62.5 -8
t27.5 -43q0 -27 -16 -37t-42 -10h-137z" />
    <glyph glyph-name="f" unicode="f" horiz-adv-x="367" 
d="M94 0h172v406h117v141h-117v8q0 37 19.5 53.5t58.5 16.5h54v125h-109q-91 0 -143 -48.5t-52 -138.5v-16h-86v-141h86v-406z" />
    <glyph glyph-name="g" unicode="g" horiz-adv-x="672" 
d="M125 -188h188q125 0 203 70t78 196v469h-250q-123 0 -206 -71.5t-83 -194.5v-70q0 -88 47.5 -134t135.5 -46q44 0 78.5 14t66.5 29l39 19v-3q0 -85 -44 -111t-128 -26h-125v-141zM289 180q-33 0 -47.5 14.5t-14.5 47.5v39q0 64 33.5 94.5t98.5 30.5h63v-188l-27 -11
q-23 -10 -51.5 -18.5t-54.5 -8.5v0z" />
    <glyph glyph-name="h" unicode="h" horiz-adv-x="688" 
d="M78 0h172v340l15.5 9.5l15.5 9.5q26 17 54 32t52 15q32 0 41.5 -19t9.5 -51v-336h171v383q0 78 -38.5 125t-117.5 47q-53 0 -93 -21t-87 -54l-23 -16v286h-172v-750z" />
    <glyph glyph-name="i" unicode="i" horiz-adv-x="344" 
d="M94 609h172v141h-172v-141zM94 0h172v547h-250v-141h78v-406z" />
    <glyph glyph-name="j" unicode="j" horiz-adv-x="344" 
d="M102 609h171v141h-171v-141zM-16 -188h71q90 0 154 55t64 164v516h-250v-141h79v-359q0 -52 -21 -73t-73 -21h-24v-141z" />
    <glyph glyph-name="k" unicode="k" horiz-adv-x="641" 
d="M78 0h172v219h39l149 -219h195v8l-203 293l203 238v8h-188l-156 -188h-39v391h-172v-750z" />
    <glyph glyph-name="l" unicode="l" horiz-adv-x="344" 
d="M94 0h172v750h-250v-141h78v-609z" />
    <glyph glyph-name="m" unicode="m" horiz-adv-x="1031" 
d="M78 0h172v341l27 18q27 17 52.5 32t49.5 15q32 0 41.5 -19t9.5 -51v-336h172v341l27 18q26 17 51.5 32t49.5 15q32 0 41.5 -19t9.5 -51v-336h172v383q0 78 -39 125t-117 47q-53 0 -89 -16t-87 -59l-23 -19h-8q-16 44 -52 69t-93 25q-53 0 -91 -21t-84 -54l-20 -16v83
h-172v-547z" />
    <glyph glyph-name="n" unicode="n" horiz-adv-x="688" 
d="M78 0h172v340l15.5 9.5l15.5 9.5q26 17 54 32t52 15q32 0 41.5 -19t9.5 -51v-336h171v383q0 78 -38.5 125t-117.5 47q-53 0 -93 -21t-87 -54l-23 -16v83h-172v-547z" />
    <glyph glyph-name="o" unicode="o" horiz-adv-x="641" 
d="M320 -8q141 0 211.5 61.5t70.5 219.5q0 147 -70.5 214.5t-211.5 67.5q-135 0 -208 -67.5t-73 -214.5q0 -158 73 -219.5t208 -61.5v0zM320 141q-59 0 -84 29.5t-25 102.5t25 103t84 30q58 0 84 -30t26 -103t-26 -102.5t-84 -29.5v0z" />
    <glyph glyph-name="p" unicode="p" horiz-adv-x="672" 
d="M78 -188h172v188h78q123 0 206 71.5t83 194.5v109q0 84 -45.5 132t-130.5 48q-44 0 -79.5 -14.5t-72.5 -40.5l-39 -26v73h-172v-735zM250 141v208l31 18q24 15 51 27t51 12q32 0 47 -15t15 -47v-78q0 -65 -34.5 -95t-97.5 -30h-63z" />
    <glyph glyph-name="q" unicode="q" horiz-adv-x="672" 
d="M422 -188h172v735h-250q-123 0 -206 -71.5t-83 -194.5v-109q0 -85 45 -132.5t130 -47.5q44 0 79.5 14.5t73.5 40.5l39 26v-261zM289 141q-33 0 -47.5 14.5t-14.5 47.5v78q0 64 33.5 94.5t98.5 30.5h63v-208l-31 -18q-24 -15 -51.5 -27t-50.5 -12v0z" />
    <glyph glyph-name="r" unicode="r" horiz-adv-x="438" 
d="M78 0h172v352q20 23 52 38.5t77 15.5h59v149h-43q-42 0 -82 -20t-63 -55v67h-172v-547z" />
    <glyph glyph-name="s" unicode="s" horiz-adv-x="539" 
d="M223 -8q108 0 192.5 35.5t84.5 144.5q0 78 -47.5 113t-104.5 47l-75 16q-20 4 -37 10.5t-17 24.5q0 20 34.5 23.5t55.5 3.5q37 0 76.5 -5t75.5 -10h8v144q-30 6 -73 11t-83 5q-115 0 -194.5 -41.5t-79.5 -134.5q0 -56 36 -97t116 -59l86 -20q20 -5 31.5 -11.5t11.5 -23.5
q0 -24 -38.5 -27.5t-58.5 -3.5q-42 0 -87.5 5t-88.5 14h-8v-144q38 -9 87 -14.5t97 -5.5v0z" />
    <glyph glyph-name="t" unicode="t" horiz-adv-x="422" 
d="M320 0h102v141h-55q-59 0 -80 25t-21 84v156h140v141h-140v141h-172v-141h-86v-141h86v-195q0 -106 60.5 -158.5t165.5 -52.5v0z" />
    <glyph glyph-name="u" unicode="u" horiz-adv-x="688" 
d="M234 -8q53 0 92.5 20t87.5 54l24 17v-83h171v547h-171v-341l-32 -18q-27 -18 -54.5 -32.5t-50.5 -14.5q-33 0 -42 18.5t-9 51.5v336h-172v-383q0 -79 38.5 -125.5t117.5 -46.5v0z" />
    <glyph glyph-name="v" unicode="v" horiz-adv-x="578" 
d="M188 0h195q41 35 102.5 150t61.5 256v141h-172v-141q0 -94 -23.5 -171t-58.5 -118q-36 41 -63 118t-27 171v141h-172v-141q0 -141 57.5 -256t99.5 -150v0z" />
    <glyph glyph-name="w" unicode="w" horiz-adv-x="875" 
d="M172 0h180q14 12 42 54.5t40 78.5q11 -36 35.5 -79t38.5 -54h180q40 35 98 150t58 256v141h-172v-141q0 -94 -19.5 -171t-54.5 -118q-36 41 -55.5 118t-19.5 171v141h-171v-141q0 -94 -20 -171t-55 -118q-36 41 -55 118t-19 171v141h-172v-141q0 -141 49.5 -256
t91.5 -150v0z" />
    <glyph glyph-name="x" unicode="x" horiz-adv-x="531" 
d="M0 0h164l99 148l96 -148h172v8l-178 274l170 257v8h-164l-90 -137l-89 137h-172v-8l171 -263l-179 -268v-8z" />
    <glyph glyph-name="y" unicode="y" horiz-adv-x="680" 
d="M141 -188h179q126 0 204 70t78 196v469h-172v-297l-24 -12q-22 -9 -48.5 -18t-52.5 -9q-33 0 -48 14.5t-15 47.5v274h-172v-305q0 -88 48 -133.5t136 -45.5q44 0 76.5 13.5t64.5 28.5l35 19v-26q0 -89 -42.5 -117t-129.5 -28h-117v-141z" />
    <glyph glyph-name="z" unicode="z" horiz-adv-x="523" 
d="M31 0h469v141h-234q58 58 124 146t102 158v102h-453v-141h246q-47 -76 -115.5 -155.5t-138.5 -148.5v-102z" />
    <glyph glyph-name="braceleft" unicode="{" horiz-adv-x="523" 
d="M391 -125h101v125h-47q-53 0 -69.5 21t-16.5 81v62q0 73 -38 105t-91 44q53 11 91 42.5t38 105.5v62q0 59 16.5 80.5t69.5 21.5h47v125h-101q-100 0 -151.5 -42.5t-51.5 -129.5v-94q0 -53 -22 -80t-103 -33v-117q81 -6 103 -33.5t22 -79.5v-94q0 -87 51.5 -129.5
t151.5 -42.5v0z" />
    <glyph glyph-name="bar" unicode="|" horiz-adv-x="359" 
d="M109 -188h141v1001h-141v-1001z" />
    <glyph glyph-name="braceright" unicode="}" horiz-adv-x="523" 
d="M31 -125h102q99 0 151 42.5t52 129.5v94q0 52 21.5 79.5t103.5 33.5v117q-82 6 -103.5 33t-21.5 80v94q0 87 -52 129.5t-151 42.5h-102v-125h47q52 0 69 -21.5t17 -80.5v-62q0 -74 38 -105.5t91 -42.5q-53 -12 -91 -44t-38 -105v-62q0 -60 -17 -81t-69 -21h-47v-125z" />
    <glyph glyph-name="asciitilde" unicode="~" 
d="M94 230h8q20 32 44.5 49.5t60.5 17.5q41 0 97.5 -33.5t109.5 -33.5q41 0 71.5 22t45.5 49v137h-8q-18 -33 -41 -50t-64 -17q-42 0 -98.5 33.5t-108.5 33.5q-42 0 -72.5 -22.5t-44.5 -48.5v-137z" />
    <glyph glyph-name="exclamdown" unicode="&#xa1;" horiz-adv-x="328" 
d="M78 578h172v172h-172v-172zM78 0h172l-12 500h-148z" />
    <glyph glyph-name="cent" unicode="&#xa2;" 
d="M313 -125h125v117q44 3 87.5 15t60.5 20v145h-8q-24 -9 -69 -20t-87 -11h-47q-85 0 -124.5 55t-39.5 140v86q0 87 42 137t130 50q67 0 113 -7t82 -16h8v144q-32 9 -69 16.5t-79 10.5v110h-125v-116q-129 -22 -205.5 -109t-76.5 -228v-78q0 -151 72 -238t210 -102v-121z
" />
    <glyph glyph-name="sterling" unicode="&#xa3;" 
d="M55 0h515v148h-289q18 18 28.5 47.5t10.5 62.5v47h188v148h-188v27q0 59 27 90.5t87 31.5h136v148h-136q-135 0 -210.5 -67.5t-75.5 -202.5v-27h-78v-148h78v-47q0 -33 -10.5 -64t-28.5 -46h-54v-148z" />
    <glyph glyph-name="currency" unicode="&#xa4;" 
d="M406 -8h32q46 0 84 13t56 22v145h-8q-20 -10 -55 -20.5t-77 -10.5h-32q-50 0 -83.5 25t-33.5 84h227v90h-227v70h227v90h-227q0 55 30.5 82t86.5 27h24q36 0 74.5 -7.5t65.5 -19.5h8v145q-21 11 -64.5 21t-83.5 10h-24q-120 0 -208.5 -69t-88.5 -189h-78v-90h78v-70h-78
v-90h78q0 -135 91.5 -196.5t205.5 -61.5v0z" />
    <glyph glyph-name="yen" unicode="&#xa5;" 
d="M223 0h172v125h164v148h-164v43l230 426v8h-168l-141 -289l-136 289h-180v-8l223 -426v-43h-164v-148h164v-125z" />
    <glyph glyph-name="brokenbar" unicode="&#xa6;" horiz-adv-x="359" 
d="M109 406h141v407h-141v-407zM109 -188h141v407h-141v-407z" />
    <glyph glyph-name="section" unicode="&#xa7;" horiz-adv-x="582" 
d="M520 227h11v160l-211 105q-26 13 -36.5 24t-10.5 35q0 29 21 40t46 11h191v148h-191q-90 0 -168 -45.5t-78 -138.5q0 -85 48 -132t100 -71zM51 -188h191q89 0 167.5 45.5t78.5 138.5q0 84 -48.5 130.5t-99.5 72.5l-277 137h-12v-160l211 -106q25 -12 36 -23.5t11 -34.5
q0 -29 -21.5 -40t-45.5 -11h-191v-149z" />
    <glyph glyph-name="dieresis" unicode="&#xa8;" horiz-adv-x="641" 
d="M379 625h125v125h-125v-125zM137 625h125v125h-125v-125z" />
    <glyph glyph-name="copyright" unicode="&#xa9;" horiz-adv-x="879" 
d="M441 16q164 0 277.5 101t113.5 266q0 164 -113.5 265.5t-277.5 101.5t-279 -101.5t-115 -265.5q0 -165 115 -266t279 -101v0zM441 86q-141 0 -222.5 83t-81.5 214q0 130 81.5 213.5t222.5 83.5t221 -83.5t80 -213.5q0 -131 -80 -214t-221 -83v0zM480 180q32 0 54 4.5
t40 10.5v55q-18 -6 -40 -11t-54 -5q-58 0 -99 36t-41 113q0 75 39 111.5t98 36.5q26 0 51 -5t46 -10v54q-21 6 -46 11t-51 5q-92 0 -163.5 -46t-71.5 -157q0 -112 73.5 -157.5t164.5 -45.5v0z" />
    <glyph glyph-name="ordfeminine" unicode="&#xaa;" horiz-adv-x="543" 
d="M51 164h418v86h-418v-86zM465 750h-194q-95 0 -159.5 -53.5t-64.5 -149.5v-86q0 -66 37.5 -99.5t103.5 -33.5q33 0 59 11t58 28l27 15v-54h133v422zM332 460l-23 -15q-19 -12 -40.5 -21.5t-39.5 -9.5q-25 0 -37 11.5t-12 36.5v104q0 50 27 74t78 24h47v-204z" />
    <glyph glyph-name="guillemotleft" unicode="&#xab;" horiz-adv-x="586" 
d="M520 125h11v125l-117 86l117 86v125h-11l-207 -156v-110zM270 125h11v125l-117 86l117 86v125h-11l-207 -156v-110z" />
    <glyph glyph-name="logicalnot" unicode="&#xac;" 
d="M391 148h140v290h-437v-141h297v-149z" />
    <glyph glyph-name="registered" unicode="&#xae;" horiz-adv-x="879" 
d="M441 16q164 0 277.5 101t113.5 266q0 164 -113.5 265.5t-277.5 101.5t-279 -101.5t-115 -265.5q0 -165 115 -266t279 -101v0zM441 86q-141 0 -222.5 83t-81.5 214q0 130 81.5 213.5t222.5 83.5t221 -83.5t80 -213.5q0 -131 -80 -214t-221 -83v0zM281 180h98v136h53
l76 -136h101v8l-93 160q36 11 59 41t23 72q0 76 -53.5 100.5t-114.5 24.5h-149v-406zM379 375v156h39q33 0 57.5 -16t24.5 -54q0 -48 -24.5 -67t-57.5 -19h-39z" />
    <glyph glyph-name="macron" unicode="&#xaf;" horiz-adv-x="641" 
d="M195 625h250v94h-250v-94z" />
    <glyph glyph-name="degree" unicode="&#xb0;" horiz-adv-x="516" 
d="M250 328q102 0 152.5 50t50.5 161t-50.5 161t-152.5 50q-103 0 -153 -50t-50 -161t50 -161t153 -50v0zM250 414q-42 0 -56 27t-14 98q0 70 14 97.5t56 27.5q41 0 55.5 -27.5t14.5 -97.5q0 -71 -14.5 -98t-55.5 -27v0z" />
    <glyph glyph-name="plusminus" unicode="&#xb1;" 
d="M242 148h141v149h148v141h-148v148h-141v-148h-148v-141h148v-149zM94 -141h437v141h-437v-141z" />
    <glyph glyph-name="uni00B2" unicode="&#xb2;" horiz-adv-x="500" 
d="M74 328h352v86h-211v8q0 17 12 29.5t35 21.5l58 23q61 24 87.5 58t26.5 79q0 55 -42 86t-130 31h-164v-86h140q35 0 49 -8.5t14 -30.5q0 -24 -17.5 -40t-33.5 -22l-70 -32q-66 -28 -86 -73t-20 -87v-43z" />
    <glyph glyph-name="uni00B3" unicode="&#xb3;" horiz-adv-x="500" 
d="M82 328h148q93 0 146.5 35t53.5 98q0 42 -22.5 64.5t-61.5 33.5q37 18 54.5 42t17.5 47q0 60 -50.5 81t-137.5 21h-148v-86h137q38 0 52 -6.5t14 -28.5q0 -15 -9.5 -26.5t-24.5 -20.5h-106v-86h74q37 0 57.5 -6.5t20.5 -32.5t-20 -34.5t-58 -8.5h-137v-86z" />
    <glyph glyph-name="acute" unicode="&#xb4;" horiz-adv-x="641" 
d="M262 625h93l149 141v15h-133l-109 -140v-16z" />
    <glyph glyph-name="mu" unicode="&#xb5;" horiz-adv-x="688" 
d="M78 -188h172v219q12 -15 35 -23t51 -8q36 0 63.5 17t45.5 39q3 -17 8.5 -30.5t11.5 -25.5h172q-12 17 -20 48.5t-8 76.5v422h-171v-368q-23 -24 -49.5 -31t-44.5 -7q-54 0 -74 18.5t-20 51.5v336h-172v-735z" />
    <glyph glyph-name="paragraph" unicode="&#xb6;" horiz-adv-x="859" 
d="M609 -188h172v938h-172v-938zM375 -188h172v938h-234q-118 0 -200 -70.5t-82 -210.5q0 -141 82.5 -211t199.5 -70h62v-376z" />
    <glyph glyph-name="periodcentered" unicode="&#xb7;" horiz-adv-x="328" 
d="M78 273h172v172h-172v-172z" />
    <glyph glyph-name="cedilla" unicode="&#xb8;" horiz-adv-x="641" 
d="M168 -188h129q43 0 78 19.5t35 63.5q0 24 -15 47t-36 35h-93v-12q17 -9 33.5 -22.5t16.5 -40.5q0 -26 -15.5 -34.5t-38.5 -8.5h-94v-47z" />
    <glyph glyph-name="uni00B9" unicode="&#xb9;" horiz-adv-x="500" 
d="M227 328h132v422h-86l-199 -70v-94h8l145 51v-309z" />
    <glyph glyph-name="ordmasculine" unicode="&#xba;" horiz-adv-x="500" 
d="M250 328q102 0 152.5 50t50.5 161t-50.5 161t-152.5 50q-103 0 -153 -50t-50 -161t50 -161t153 -50v0zM47 164h402v86h-402v-86zM250 414q-42 0 -56 27t-14 98q0 70 14 97.5t56 27.5q41 0 55.5 -27.5t14.5 -97.5q0 -71 -14.5 -98t-55.5 -27v0z" />
    <glyph glyph-name="guillemotright" unicode="&#xbb;" horiz-adv-x="586" 
d="M305 125h11l207 156v110l-207 156h-11v-125l117 -86l-117 -86v-125zM55 125h11l207 156v110l-207 156h-11v-125l117 -86l-117 -86v-125z" />
    <glyph glyph-name="onequarter" unicode="&#xbc;" horiz-adv-x="1031" 
d="M215 328h133v422h-86l-199 -70v-94h7l145 51v-309zM297 0h82l355 734v16h-82l-355 -734v-16zM813 0h132v66h39v86h-39v75h-132v-75h-90q46 58 63 141.5t23 128.5h-145q-3 -48 -17.5 -135.5t-60.5 -153.5v-67h227v-66z" />
    <glyph glyph-name="onehalf" unicode="&#xbd;" horiz-adv-x="1031" 
d="M215 328h133v422h-86l-199 -70v-94h7l145 51v-309zM297 0h82l355 734v16h-82l-355 -734v-16zM633 0h351v86h-211v8q0 17 12.5 29.5t34.5 21.5l59 23q61 24 87 58t26 79q0 55 -42 86t-130 31h-164v-86h141q35 0 48.5 -8.5t13.5 -30.5q0 -24 -17 -40t-33 -23l-71 -31
q-66 -28 -85.5 -73t-19.5 -87v-43z" />
    <glyph glyph-name="threequarters" unicode="&#xbe;" horiz-adv-x="1031" 
d="M59 328h148q93 0 146 35t53 98q0 42 -22 64.5t-62 33.5q38 18 55.5 42t17.5 47q0 60 -51 81t-137 21h-137v-86h125q38 0 52.5 -6.5t14.5 -28.5q0 -15 -9.5 -26.5t-24.5 -20.5h-107v-86h74q37 0 57.5 -6.5t20.5 -32.5t-20 -34.5t-58 -8.5h-136v-86zM297 0h82l355 734v16
h-82l-355 -734v-16zM813 0h132v66h39v86h-39v75h-132v-75h-90q46 58 63 141.5t23 128.5h-145q-3 -48 -17.5 -135.5t-60.5 -153.5v-67h227v-66z" />
    <glyph glyph-name="questiondown" unicode="&#xbf;" horiz-adv-x="520" 
d="M219 578h172v172h-172v-172zM238 0h219v148h-137q-47 0 -82 8t-35 47q0 29 14 53.5t41 56.5l133 156v31h-172v-27l-98 -114q-49 -57 -69.5 -103t-20.5 -84q0 -85 52.5 -128.5t154.5 -43.5v0z" />
    <glyph glyph-name="Agrave" unicode="&#xc0;" horiz-adv-x="750" 
d="M325 805h93v16l-109 140h-133v-15zM31 0h172q7 34 17 76.5t22 87.5h260q10 -45 19.5 -87.5t17.5 -76.5h188v8q-24 99 -43.5 166t-42.5 146q-36 120 -84.5 252.5t-72.5 177.5h-211q-24 -45 -72.5 -177.5t-83.5 -252.5q-24 -79 -43 -146t-43 -166v-8zM282 313
q27 98 52.5 181t40.5 119q15 -36 39.5 -119t50.5 -181h-183z" />
    <glyph glyph-name="Aacute" unicode="&#xc1;" horiz-adv-x="750" 
d="M317 805h93l149 141v15h-133l-109 -140v-16zM31 0h172q7 34 17 76.5t22 87.5h260q10 -45 19.5 -87.5t17.5 -76.5h188v8q-24 99 -43.5 166t-42.5 146q-36 120 -84.5 252.5t-72.5 177.5h-211q-24 -45 -72.5 -177.5t-83.5 -252.5q-24 -79 -43 -146t-43 -166v-8zM282 313
q27 98 52.5 181t40.5 119q15 -36 39.5 -119t50.5 -181h-183z" />
    <glyph glyph-name="Acircumflex" unicode="&#xc2;" horiz-adv-x="750" 
d="M157 805h109l109 94l110 -94h109v16l-141 140h-156l-140 -140v-16zM31 0h172q7 34 17 76.5t22 87.5h260q10 -45 19.5 -87.5t17.5 -76.5h188v8q-24 99 -43.5 166t-42.5 146q-36 120 -84.5 252.5t-72.5 177.5h-211q-24 -45 -72.5 -177.5t-83.5 -252.5q-24 -79 -43 -146
t-43 -166v-8zM282 313q27 98 52.5 181t40.5 119q15 -36 39.5 -119t50.5 -181h-183z" />
    <glyph glyph-name="Atilde" unicode="&#xc3;" horiz-adv-x="750" 
d="M203 805h8q17 22 40.5 42.5t57.5 20.5q29 0 60.5 -31.5t72.5 -31.5q34 0 63.5 22.5t41.5 40.5v93h-8q-18 -23 -40.5 -42.5t-56.5 -19.5q-29 0 -61 31t-72 31q-34 0 -64 -23t-42 -39v-94zM31 0h172q7 34 17 76.5t22 87.5h260q10 -45 19.5 -87.5t17.5 -76.5h188v8
q-24 99 -43.5 166t-42.5 146q-36 120 -84.5 252.5t-72.5 177.5h-211q-24 -45 -72.5 -177.5t-83.5 -252.5q-24 -79 -43 -146t-43 -166v-8zM282 313q27 98 52.5 181t40.5 119q15 -36 39.5 -119t50.5 -181h-183z" />
    <glyph glyph-name="Adieresis" unicode="&#xc4;" horiz-adv-x="750" 
d="M434 805h125v125h-125v-125zM192 805h125v125h-125v-125zM31 0h172q7 34 17 76.5t22 87.5h260q10 -45 19.5 -87.5t17.5 -76.5h188v8q-24 99 -43.5 166t-42.5 146q-36 120 -84.5 252.5t-72.5 177.5h-211q-24 -45 -72.5 -177.5t-83.5 -252.5q-24 -79 -43 -146t-43 -166v-8z
M282 313q27 98 52.5 181t40.5 119q15 -36 39.5 -119t50.5 -181h-183z" />
    <glyph glyph-name="Aring" unicode="&#xc5;" horiz-adv-x="750" 
d="M375 805q58 0 97.5 29.5t39.5 79.5q0 53 -39.5 81.5t-97.5 28.5q-59 0 -97.5 -30t-38.5 -80q0 -56 38.5 -82.5t97.5 -26.5v0zM375 852q-36 0 -51 19t-15 43t15 43.5t51 19.5q35 0 51 -19.5t16 -43.5t-16 -43t-51 -19v0zM31 0h172q7 34 17 76.5t22 87.5h260
q10 -45 19.5 -87.5t17.5 -76.5h188v8q-24 99 -43.5 166t-42.5 146q-36 120 -84.5 252.5t-72.5 177.5h-211q-24 -45 -72.5 -177.5t-83.5 -252.5q-24 -79 -43 -146t-43 -166v-8zM282 313q27 98 52.5 181t40.5 119q15 -36 39.5 -119t50.5 -181h-183z" />
    <glyph glyph-name="AE" unicode="&#xc6;" horiz-adv-x="1000" 
d="M31 0h172q8 35 18 77t21 87h197q9 -76 55.5 -120t130.5 -44h313v148h-250q-48 0 -63.5 19.5t-15.5 66.5v71h282v148h-282v149h313v148h-649q-24 -45 -72.5 -177.5t-83.5 -252.5q-24 -79 -43 -146t-43 -166v-8zM282 313q26 93 50.5 173.5t38.5 115.5h67v-289h-156z" />
    <glyph glyph-name="Ccedilla" unicode="&#xc7;" horiz-adv-x="672" 
d="M262 -188h129q43 0 78 19.5t35 63.5q0 24 -15 47t-36 35h-93v-12q17 -9 33.5 -22.5t16.5 -40.5q0 -26 -15.5 -34.5t-38.5 -8.5h-94v-47zM398 -8h47q47 0 104.5 13t75.5 22v145h-8q-24 -9 -77 -20t-95 -11h-47q-85 0 -132 55t-47 140v86q0 87 45.5 137t133.5 50
q12 0 37 -2.5t34 -4.5v-94h156v219q-39 14 -97.5 22.5t-113.5 8.5q-165 0 -270 -90t-105 -254v-78q0 -168 96 -256t263 -88v0z" />
    <glyph glyph-name="Egrave" unicode="&#xc8;" horiz-adv-x="641" 
d="M270 805h93v16l-109 140h-133v-15zM266 0h312v148h-250q-47 0 -62.5 19.5t-15.5 66.5v71h281v148h-281v149h313v148h-485v-547q0 -94 47 -148.5t141 -54.5v0z" />
    <glyph glyph-name="Eacute" unicode="&#xc9;" horiz-adv-x="641" 
d="M262 805h93l149 141v15h-133l-109 -140v-16zM266 0h312v148h-250q-47 0 -62.5 19.5t-15.5 66.5v71h281v148h-281v149h313v148h-485v-547q0 -94 47 -148.5t141 -54.5v0z" />
    <glyph glyph-name="Ecircumflex" unicode="&#xca;" horiz-adv-x="641" 
d="M102 805h109l109 94l110 -94h109v16l-141 140h-156l-140 -140v-16zM266 0h312v148h-250q-47 0 -62.5 19.5t-15.5 66.5v71h281v148h-281v149h313v148h-485v-547q0 -94 47 -148.5t141 -54.5v0z" />
    <glyph glyph-name="Edieresis" unicode="&#xcb;" horiz-adv-x="641" 
d="M379 805h125v125h-125v-125zM137 805h125v125h-125v-125zM266 0h312v148h-250q-47 0 -62.5 19.5t-15.5 66.5v71h281v148h-281v149h313v148h-485v-547q0 -94 47 -148.5t141 -54.5v0z" />
    <glyph glyph-name="Igrave" unicode="&#xcc;" horiz-adv-x="328" 
d="M227 805h93v16l-109 140h-133v-15zM191 0h172v750h-172v-750z" />
    <glyph glyph-name="Iacute" unicode="&#xcd;" horiz-adv-x="328" 
d="M106 805h93l149 141v15h-133l-109 -140v-16zM78 0h172v750h-172v-750z" />
    <glyph glyph-name="Icircumflex" unicode="&#xce;" horiz-adv-x="328" 
d="M78 805h109l109 94l110 -94h109v16l-141 140h-156l-140 -140v-16zM210 0h172v750h-172v-750z" />
    <glyph glyph-name="Idieresis" unicode="&#xcf;" horiz-adv-x="328" 
d="M320 805h125v125h-125v-125zM78 805h125v125h-125v-125zM175 0h172v750h-172v-750z" />
    <glyph glyph-name="Eth" unicode="&#xd0;" horiz-adv-x="758" 
d="M250 453v149h109q88 0 134 -50.5t46 -137.5v-62q0 -94 -46 -149t-134 -55h-109v157h109v148h-109zM78 305v-305h281q187 0 273.5 94.5t86.5 241.5v94q0 140 -89 230t-271 90h-281v-297h-47v-148h47z" />
    <glyph glyph-name="Ntilde" unicode="&#xd1;" horiz-adv-x="766" 
d="M211 805h8q17 22 40.5 42.5t57.5 20.5q29 0 60.5 -31.5t72.5 -31.5q34 0 63.5 22.5t41.5 40.5v93h-8q-18 -23 -40.5 -42.5t-56.5 -19.5q-29 0 -61 31t-72 31q-34 0 -64 -23t-42 -39v-94zM78 0h172v445l281 -445h157v750h-172v-445l-282 445h-156v-750z" />
    <glyph glyph-name="Ograve" unicode="&#xd2;" horiz-adv-x="766" 
d="M333 805h93v16l-109 140h-133v-15zM383 -8q172 0 258 99t86 272v32q0 172 -86 267.5t-258 95.5q-174 0 -259 -95.5t-85 -267.5v-32q0 -173 85 -272t259 -99v0zM383 141q-97 0 -130.5 62.5t-33.5 159.5v32q0 96 33.5 155t130.5 59q96 0 130 -59t34 -155v-32
q0 -97 -34 -159.5t-130 -62.5v0z" />
    <glyph glyph-name="Oacute" unicode="&#xd3;" horiz-adv-x="766" 
d="M325 805h93l149 141v15h-133l-109 -140v-16zM383 -8q172 0 258 99t86 272v32q0 172 -86 267.5t-258 95.5q-174 0 -259 -95.5t-85 -267.5v-32q0 -173 85 -272t259 -99v0zM383 141q-97 0 -130.5 62.5t-33.5 159.5v32q0 96 33.5 155t130.5 59q96 0 130 -59t34 -155v-32
q0 -97 -34 -159.5t-130 -62.5v0z" />
    <glyph glyph-name="Ocircumflex" unicode="&#xd4;" horiz-adv-x="766" 
d="M165 805h109l109 94l110 -94h109v16l-141 140h-156l-140 -140v-16zM383 -8q172 0 258 99t86 272v32q0 172 -86 267.5t-258 95.5q-174 0 -259 -95.5t-85 -267.5v-32q0 -173 85 -272t259 -99v0zM383 141q-97 0 -130.5 62.5t-33.5 159.5v32q0 96 33.5 155t130.5 59
q96 0 130 -59t34 -155v-32q0 -97 -34 -159.5t-130 -62.5v0z" />
    <glyph glyph-name="Otilde" unicode="&#xd5;" horiz-adv-x="766" 
d="M211 805h8q17 22 40.5 42.5t57.5 20.5q29 0 60.5 -31.5t72.5 -31.5q34 0 63.5 22.5t41.5 40.5v93h-8q-18 -23 -40.5 -42.5t-56.5 -19.5q-29 0 -61 31t-72 31q-34 0 -64 -23t-42 -39v-94zM383 -8q172 0 258 99t86 272v32q0 172 -86 267.5t-258 95.5q-174 0 -259 -95.5
t-85 -267.5v-32q0 -173 85 -272t259 -99v0zM383 141q-97 0 -130.5 62.5t-33.5 159.5v32q0 96 33.5 155t130.5 59q96 0 130 -59t34 -155v-32q0 -97 -34 -159.5t-130 -62.5v0z" />
    <glyph glyph-name="Odieresis" unicode="&#xd6;" horiz-adv-x="766" 
d="M442 805h125v125h-125v-125zM200 805h125v125h-125v-125zM383 -8q172 0 258 99t86 272v32q0 172 -86 267.5t-258 95.5q-174 0 -259 -95.5t-85 -267.5v-32q0 -173 85 -272t259 -99v0zM383 141q-97 0 -130.5 62.5t-33.5 159.5v32q0 96 33.5 155t130.5 59q96 0 130 -59
t34 -155v-32q0 -97 -34 -159.5t-130 -62.5v0z" />
    <glyph glyph-name="multiply" unicode="&#xd7;" 
d="M208 163l105 105l104 -105l100 100l-105 104l105 105l-100 99l-104 -104l-105 104l-100 -99l105 -105l-105 -104z" />
    <glyph glyph-name="Oslash" unicode="&#xd8;" horiz-adv-x="766" 
d="M383 -8q172 0 258 99t86 272v32q0 79 -19 143t-55 110l74 90v12h-86l-41 -51q-42 28 -96 43.5t-121 15.5q-174 0 -259 -95.5t-85 -267.5v-32q0 -81 18.5 -146.5t56.5 -112.5l-75 -92v-12h86l43 53q40 -30 94 -45.5t121 -15.5v0zM232 249q-7 24 -10 52.5t-3 61.5v32
q0 96 33.5 155t130.5 59q38 0 66 -10t46 -28zM383 141q-38 0 -65.5 10t-46.5 29l263 323q6 -24 9.5 -51t3.5 -57v-32q0 -97 -34 -159.5t-130 -62.5v0z" />
    <glyph glyph-name="Ugrave" unicode="&#xd9;" horiz-adv-x="766" 
d="M333 805h93v16l-109 140h-133v-15zM383 -8q129 0 217 68.5t88 212.5v477h-172v-480q0 -65 -31.5 -97t-101.5 -32q-71 0 -102 32t-31 97v480h-172v-478q0 -143 82 -211.5t223 -68.5v0z" />
    <glyph glyph-name="Uacute" unicode="&#xda;" horiz-adv-x="766" 
d="M325 805h93l149 141v15h-133l-109 -140v-16zM383 -8q129 0 217 68.5t88 212.5v477h-172v-480q0 -65 -31.5 -97t-101.5 -32q-71 0 -102 32t-31 97v480h-172v-478q0 -143 82 -211.5t223 -68.5v0z" />
    <glyph glyph-name="Ucircumflex" unicode="&#xdb;" horiz-adv-x="766" 
d="M165 805h109l109 94l110 -94h109v16l-141 140h-156l-140 -140v-16zM383 -8q129 0 217 68.5t88 212.5v477h-172v-480q0 -65 -31.5 -97t-101.5 -32q-71 0 -102 32t-31 97v480h-172v-478q0 -143 82 -211.5t223 -68.5v0z" />
    <glyph glyph-name="Udieresis" unicode="&#xdc;" horiz-adv-x="766" 
d="M442 805h125v125h-125v-125zM200 805h125v125h-125v-125zM383 -8q129 0 217 68.5t88 212.5v477h-172v-480q0 -65 -31.5 -97t-101.5 -32q-71 0 -102 32t-31 97v480h-172v-478q0 -143 82 -211.5t223 -68.5v0z" />
    <glyph glyph-name="Yacute" unicode="&#xdd;" horiz-adv-x="699" 
d="M291 805h93l149 141v15h-133l-109 -140v-16zM258 0h172v285l254 457v8h-168l-164 -320l-157 320h-179v-8l242 -457v-285z" />
    <glyph glyph-name="Thorn" unicode="&#xde;" horiz-adv-x="672" 
d="M78 0h172v141h86q123 0 210 60t87 213q0 141 -76.5 199.5t-204.5 58.5h-102v78h-172v-750zM250 289v234h70q70 0 101.5 -19.5t31.5 -89.5q0 -76 -31.5 -100.5t-101.5 -24.5h-70z" />
    <glyph glyph-name="germandbls" unicode="&#xdf;" horiz-adv-x="773" 
d="M512 -8q99 0 164.5 45t65.5 139q0 70 -32 103t-89 57l-47 19q-23 9 -37 21.5t-14 33.5q0 26 14 38.5t29 24.5q27 21 53 47t26 85q0 76 -84.5 110.5t-165.5 34.5q-129 0 -215 -46.5t-86 -148.5v-8h-86v-141h86v-406h172v500q0 90 40 107.5t85 17.5q40 0 61 -13.5t21 -33.5
q0 -15 -8.5 -29.5t-46.5 -40.5q-37 -25 -55.5 -55.5t-18.5 -65.5q0 -56 28 -92t73 -53l51 -19q30 -12 48.5 -20t18.5 -31q0 -24 -26.5 -29.5t-56.5 -5.5q-21 0 -60.5 3.5t-71.5 15.5h-8v-144q29 -12 85.5 -16t86.5 -4v0z" />
    <glyph glyph-name="agrave" unicode="&#xe0;" horiz-adv-x="672" 
d="M315 625h93v16l-109 140h-133v-15zM230 -8q44 0 79.5 14.5t73.5 40.5l39 26v-73h172v547h-250q-123 0 -206 -71.5t-83 -194.5v-109q0 -85 45 -132.5t130 -47.5v0zM289 141q-33 0 -47.5 14.5t-14.5 47.5v78q0 64 33.5 94.5t98.5 30.5h63v-208l-31 -18q-24 -15 -51.5 -27
t-50.5 -12v0z" />
    <glyph glyph-name="aacute" unicode="&#xe1;" horiz-adv-x="672" 
d="M278 625h93l149 141v15h-133l-109 -140v-16zM230 -8q44 0 79.5 14.5t73.5 40.5l39 26v-73h172v547h-250q-123 0 -206 -71.5t-83 -194.5v-109q0 -85 45 -132.5t130 -47.5v0zM289 141q-33 0 -47.5 14.5t-14.5 47.5v78q0 64 33.5 94.5t98.5 30.5h63v-208l-31 -18
q-24 -15 -51.5 -27t-50.5 -12v0z" />
    <glyph glyph-name="acircumflex" unicode="&#xe2;" horiz-adv-x="672" 
d="M118 625h109l109 94l110 -94h109v16l-141 140h-156l-140 -140v-16zM230 -8q44 0 79.5 14.5t73.5 40.5l39 26v-73h172v547h-250q-123 0 -206 -71.5t-83 -194.5v-109q0 -85 45 -132.5t130 -47.5v0zM289 141q-33 0 -47.5 14.5t-14.5 47.5v78q0 64 33.5 94.5t98.5 30.5h63
v-208l-31 -18q-24 -15 -51.5 -27t-50.5 -12v0z" />
    <glyph glyph-name="atilde" unicode="&#xe3;" horiz-adv-x="672" 
d="M164 625h8q17 22 40.5 42.5t57.5 20.5q29 0 60.5 -31.5t72.5 -31.5q34 0 63.5 22.5t41.5 40.5v93h-8q-18 -23 -40.5 -42.5t-56.5 -19.5q-29 0 -61 31t-72 31q-34 0 -64 -23t-42 -39v-94zM230 -8q44 0 79.5 14.5t73.5 40.5l39 26v-73h172v547h-250q-123 0 -206 -71.5
t-83 -194.5v-109q0 -85 45 -132.5t130 -47.5v0zM289 141q-33 0 -47.5 14.5t-14.5 47.5v78q0 64 33.5 94.5t98.5 30.5h63v-208l-31 -18q-24 -15 -51.5 -27t-50.5 -12v0z" />
    <glyph glyph-name="adieresis" unicode="&#xe4;" horiz-adv-x="672" 
d="M395 625h125v125h-125v-125zM153 625h125v125h-125v-125zM230 -8q44 0 79.5 14.5t73.5 40.5l39 26v-73h172v547h-250q-123 0 -206 -71.5t-83 -194.5v-109q0 -85 45 -132.5t130 -47.5v0zM289 141q-33 0 -47.5 14.5t-14.5 47.5v78q0 64 33.5 94.5t98.5 30.5h63v-208
l-31 -18q-24 -15 -51.5 -27t-50.5 -12v0z" />
    <glyph glyph-name="aring" unicode="&#xe5;" horiz-adv-x="672" 
d="M336 625q58 0 97.5 29.5t39.5 79.5q0 53 -39.5 81.5t-97.5 28.5q-59 0 -97.5 -30t-38.5 -80q0 -56 38.5 -82.5t97.5 -26.5v0zM336 672q-36 0 -51 19t-15 43t15 43.5t51 19.5q35 0 51 -19.5t16 -43.5t-16 -43t-51 -19v0zM230 -8q44 0 79.5 14.5t73.5 40.5l39 26v-73h172
v547h-250q-123 0 -206 -71.5t-83 -194.5v-109q0 -85 45 -132.5t130 -47.5v0zM289 141q-33 0 -47.5 14.5t-14.5 47.5v78q0 64 33.5 94.5t98.5 30.5h63v-208l-31 -18q-24 -15 -51.5 -27t-50.5 -12v0z" />
    <glyph glyph-name="ae" unicode="&#xe6;" horiz-adv-x="992" 
d="M230 -8q44 0 79.5 14t73.5 41l68 48q33 -55 96.5 -79t147.5 -24q38 0 97 6.5t106 24.5v141h-7q-45 -12 -90.5 -17.5t-89.5 -5.5q-45 0 -81 12.5t-36 57.5v4h148q87 0 145 36t58 124q0 102 -72 137t-174 35h-355q-123 0 -206 -71.5t-83 -194.5v-109q0 -85 45 -132.5
t130 -47.5v0zM594 316v8q0 50 27.5 70t77.5 20q35 0 62.5 -8t27.5 -43q0 -27 -16 -37t-43 -10h-136zM289 141q-33 0 -47.5 14.5t-14.5 47.5v78q0 64 33.5 94.5t98.5 30.5h78q-8 -19 -11.5 -40.5t-3.5 -45.5v-105v-9v-7l-31 -19q-24 -15 -51.5 -27t-50.5 -12v0z" />
    <glyph glyph-name="ccedilla" unicode="&#xe7;" horiz-adv-x="555" 
d="M164 -188h129q43 0 78 19.5t35 63.5q0 24 -15 47t-36 35h-93v-12q17 -9 33.5 -22.5t16.5 -40.5q0 -26 -15.5 -34.5t-38.5 -8.5h-94v-47zM316 -8q41 0 93.5 10t82.5 25v141h-8q-35 -12 -80.5 -19.5t-83.5 -7.5q-53 0 -81 24t-28 77v71q0 43 24.5 68t69.5 25
q14 0 27.5 -2.5t19.5 -5.5v-70h140v188q-41 20 -88 29.5t-99 9.5q-109 0 -187.5 -63.5t-78.5 -171.5v-117q0 -117 80 -164t197 -47v0z" />
    <glyph glyph-name="egrave" unicode="&#xe8;" horiz-adv-x="609" 
d="M258 625h93v16l-109 140h-133v-15zM313 -8q37 0 96 6.5t107 24.5v141h-8q-45 -12 -90.5 -17.5t-89.5 -5.5t-80.5 12.5t-36.5 57.5v4h148q88 0 146 36t58 124q0 102 -72.5 141t-174.5 39q-117 0 -197 -59t-80 -176v-105q0 -120 76.5 -171.5t197.5 -51.5v0zM211 316v8
q0 50 27.5 70t77.5 20q35 0 62.5 -8t27.5 -43q0 -27 -16 -37t-42 -10h-137z" />
    <glyph glyph-name="eacute" unicode="&#xe9;" horiz-adv-x="609" 
d="M250 625h93l149 141v15h-133l-109 -140v-16zM313 -8q37 0 96 6.5t107 24.5v141h-8q-45 -12 -90.5 -17.5t-89.5 -5.5t-80.5 12.5t-36.5 57.5v4h148q88 0 146 36t58 124q0 102 -72.5 141t-174.5 39q-117 0 -197 -59t-80 -176v-105q0 -120 76.5 -171.5t197.5 -51.5v0z
M211 316v8q0 50 27.5 70t77.5 20q35 0 62.5 -8t27.5 -43q0 -27 -16 -37t-42 -10h-137z" />
    <glyph glyph-name="ecircumflex" unicode="&#xea;" horiz-adv-x="609" 
d="M90 625h109l109 94l110 -94h109v16l-141 140h-156l-140 -140v-16zM313 -8q37 0 96 6.5t107 24.5v141h-8q-45 -12 -90.5 -17.5t-89.5 -5.5t-80.5 12.5t-36.5 57.5v4h148q88 0 146 36t58 124q0 102 -72.5 141t-174.5 39q-117 0 -197 -59t-80 -176v-105q0 -120 76.5 -171.5
t197.5 -51.5v0zM211 316v8q0 50 27.5 70t77.5 20q35 0 62.5 -8t27.5 -43q0 -27 -16 -37t-42 -10h-137z" />
    <glyph glyph-name="edieresis" unicode="&#xeb;" horiz-adv-x="609" 
d="M367 625h125v125h-125v-125zM125 625h125v125h-125v-125zM313 -8q37 0 96 6.5t107 24.5v141h-8q-45 -12 -90.5 -17.5t-89.5 -5.5t-80.5 12.5t-36.5 57.5v4h148q88 0 146 36t58 124q0 102 -72.5 141t-174.5 39q-117 0 -197 -59t-80 -176v-105q0 -120 76.5 -171.5
t197.5 -51.5v0zM211 316v8q0 50 27.5 70t77.5 20q35 0 62.5 -8t27.5 -43q0 -27 -16 -37t-42 -10h-137z" />
    <glyph glyph-name="igrave" unicode="&#xec;" horiz-adv-x="344" 
d="M165 625h93v16l-109 140h-133v-15zM137 0h172v547h-250v-141h78v-406z" />
    <glyph glyph-name="iacute" unicode="&#xed;" horiz-adv-x="344" 
d="M114 625h93l149 141v15h-133l-109 -140v-16zM94 0h172v547h-250v-141h78v-406z" />
    <glyph glyph-name="icircumflex" unicode="&#xee;" horiz-adv-x="344" 
d="M16 625h109l109 94l110 -94h109v16l-141 140h-156l-140 -140v-16zM156 0h172v547h-250v-141h78v-406z" />
    <glyph glyph-name="idieresis" unicode="&#xef;" horiz-adv-x="344" 
d="M258 625h125v125h-125v-125zM16 625h125v125h-125v-125zM121 0h172v547h-250v-141h78v-406z" />
    <glyph glyph-name="eth" unicode="&#xf0;" horiz-adv-x="672" 
d="M289 141q-33 0 -47.5 14.5t-14.5 47.5v78q0 64 33.5 94.5t98.5 30.5h63v-208l-31 -18q-24 -15 -51.5 -27t-50.5 -12v0zM422 625v-78h-78q-123 0 -206 -71.5t-83 -194.5v-109q0 -85 45 -132.5t130 -47.5q44 0 79.5 14.5t73.5 40.5l39 26v-73h172v625h47v125h-340v-125h121
z" />
    <glyph glyph-name="ntilde" unicode="&#xf1;" horiz-adv-x="688" 
d="M171 625h8q17 22 40.5 42.5t57.5 20.5q29 0 60.5 -31.5t72.5 -31.5q34 0 63.5 22.5t41.5 40.5v93h-8q-18 -23 -40.5 -42.5t-56.5 -19.5q-29 0 -61 31t-72 31q-34 0 -64 -23t-42 -39v-94zM78 0h172v340l15.5 9.5l15.5 9.5q26 17 54 32t52 15q32 0 41.5 -19t9.5 -51v-336
h171v383q0 78 -38.5 125t-117.5 47q-53 0 -93 -21t-87 -54l-23 -16v83h-172v-547z" />
    <glyph glyph-name="ograve" unicode="&#xf2;" horiz-adv-x="641" 
d="M270 625h93v16l-109 140h-133v-15zM320 -8q141 0 211.5 61.5t70.5 219.5q0 147 -70.5 214.5t-211.5 67.5q-135 0 -208 -67.5t-73 -214.5q0 -158 73 -219.5t208 -61.5v0zM320 141q-59 0 -84 29.5t-25 102.5t25 103t84 30q58 0 84 -30t26 -103t-26 -102.5t-84 -29.5v0z" />
    <glyph glyph-name="oacute" unicode="&#xf3;" horiz-adv-x="641" 
d="M262 625h93l149 141v15h-133l-109 -140v-16zM320 -8q141 0 211.5 61.5t70.5 219.5q0 147 -70.5 214.5t-211.5 67.5q-135 0 -208 -67.5t-73 -214.5q0 -158 73 -219.5t208 -61.5v0zM320 141q-59 0 -84 29.5t-25 102.5t25 103t84 30q58 0 84 -30t26 -103t-26 -102.5
t-84 -29.5v0z" />
    <glyph glyph-name="ocircumflex" unicode="&#xf4;" horiz-adv-x="641" 
d="M102 625h109l109 94l110 -94h109v16l-141 140h-156l-140 -140v-16zM320 -8q141 0 211.5 61.5t70.5 219.5q0 147 -70.5 214.5t-211.5 67.5q-135 0 -208 -67.5t-73 -214.5q0 -158 73 -219.5t208 -61.5v0zM320 141q-59 0 -84 29.5t-25 102.5t25 103t84 30q58 0 84 -30
t26 -103t-26 -102.5t-84 -29.5v0z" />
    <glyph glyph-name="otilde" unicode="&#xf5;" horiz-adv-x="641" 
d="M148 625h8q17 22 40.5 42.5t57.5 20.5q29 0 60.5 -31.5t72.5 -31.5q34 0 63.5 22.5t41.5 40.5v93h-8q-18 -23 -40.5 -42.5t-56.5 -19.5q-29 0 -61 31t-72 31q-34 0 -64 -23t-42 -39v-94zM320 -8q141 0 211.5 61.5t70.5 219.5q0 147 -70.5 214.5t-211.5 67.5
q-135 0 -208 -67.5t-73 -214.5q0 -158 73 -219.5t208 -61.5v0zM320 141q-59 0 -84 29.5t-25 102.5t25 103t84 30q58 0 84 -30t26 -103t-26 -102.5t-84 -29.5v0z" />
    <glyph glyph-name="odieresis" unicode="&#xf6;" horiz-adv-x="641" 
d="M379 625h125v125h-125v-125zM137 625h125v125h-125v-125zM320 -8q141 0 211.5 61.5t70.5 219.5q0 147 -70.5 214.5t-211.5 67.5q-135 0 -208 -67.5t-73 -214.5q0 -158 73 -219.5t208 -61.5v0zM320 141q-59 0 -84 29.5t-25 102.5t25 103t84 30q58 0 84 -30t26 -103
t-26 -102.5t-84 -29.5v0z" />
    <glyph glyph-name="divide" unicode="&#xf7;" 
d="M242 500h141v141h-141v-141zM94 297h437v141h-437v-141zM242 94h141v140h-141v-140z" />
    <glyph glyph-name="oslash" unicode="&#xf8;" horiz-adv-x="641" 
d="M320 -8q141 0 211.5 61.5t70.5 219.5q0 65 -14.5 115t-41.5 84l56 63v12h-86l-26 -28q-33 18 -75.5 27t-94.5 9q-135 0 -208 -67.5t-73 -214.5q0 -68 14 -117.5t41 -82.5l-55 -61v-12h86l6.5 7.5t17.5 19.5q33 -18 76 -26.5t95 -8.5v0zM217 212q-3 12 -4.5 27.5
t-1.5 33.5q0 73 25 103t84 30q18 0 33 -2.5t27 -7.5zM320 141q-18 0 -33 2t-27 8l164 184q3 -13 4.5 -28.5t1.5 -33.5q0 -73 -26 -102.5t-84 -29.5v0z" />
    <glyph glyph-name="ugrave" unicode="&#xf9;" horiz-adv-x="688" 
d="M293 625h93v16l-109 140h-133v-15zM234 -8q53 0 92.5 20t87.5 54l24 17v-83h171v547h-171v-341l-32 -18q-27 -18 -54.5 -32.5t-50.5 -14.5q-33 0 -42 18.5t-9 51.5v336h-172v-383q0 -79 38.5 -125.5t117.5 -46.5v0z" />
    <glyph glyph-name="uacute" unicode="&#xfa;" horiz-adv-x="688" 
d="M285 625h93l149 141v15h-133l-109 -140v-16zM234 -8q53 0 92.5 20t87.5 54l24 17v-83h171v547h-171v-341l-32 -18q-27 -18 -54.5 -32.5t-50.5 -14.5q-33 0 -42 18.5t-9 51.5v336h-172v-383q0 -79 38.5 -125.5t117.5 -46.5v0z" />
    <glyph glyph-name="ucircumflex" unicode="&#xfb;" horiz-adv-x="688" 
d="M125 625h109l109 94l110 -94h109v16l-141 140h-156l-140 -140v-16zM234 -8q53 0 92.5 20t87.5 54l24 17v-83h171v547h-171v-341l-32 -18q-27 -18 -54.5 -32.5t-50.5 -14.5q-33 0 -42 18.5t-9 51.5v336h-172v-383q0 -79 38.5 -125.5t117.5 -46.5v0z" />
    <glyph glyph-name="udieresis" unicode="&#xfc;" horiz-adv-x="688" 
d="M402 625h125v125h-125v-125zM160 625h125v125h-125v-125zM234 -8q53 0 92.5 20t87.5 54l24 17v-83h171v547h-171v-341l-32 -18q-27 -18 -54.5 -32.5t-50.5 -14.5q-33 0 -42 18.5t-9 51.5v336h-172v-383q0 -79 38.5 -125.5t117.5 -46.5v0z" />
    <glyph glyph-name="yacute" unicode="&#xfd;" horiz-adv-x="680" 
d="M282 625h93l149 141v15h-133l-109 -140v-16zM141 -188h179q126 0 204 70t78 196v469h-172v-297l-24 -12q-22 -9 -48.5 -18t-52.5 -9q-33 0 -48 14.5t-15 47.5v274h-172v-305q0 -88 48 -133.5t136 -45.5q44 0 76.5 13.5t64.5 28.5l35 19v-26q0 -89 -42.5 -117t-129.5 -28
h-117v-141z" />
    <glyph glyph-name="thorn" unicode="&#xfe;" horiz-adv-x="672" 
d="M78 -188h172v188h78q123 0 206 71.5t83 194.5v109q0 84 -45.5 132t-130.5 48q-44 0 -79.5 -14.5t-72.5 -40.5l-39 -26v276h-172v-938zM250 141v208l31 18q24 15 51 27t51 12q32 0 47 -15t15 -47v-78q0 -65 -34.5 -95t-97.5 -30h-63z" />
    <glyph glyph-name="ydieresis" unicode="&#xff;" horiz-adv-x="680" 
d="M399 625h125v125h-125v-125zM157 625h125v125h-125v-125zM141 -188h179q126 0 204 70t78 196v469h-172v-297l-24 -12q-22 -9 -48.5 -18t-52.5 -9q-33 0 -48 14.5t-15 47.5v274h-172v-305q0 -88 48 -133.5t136 -45.5q44 0 76.5 13.5t64.5 28.5l35 19v-26q0 -89 -42.5 -117
t-129.5 -28h-117v-141z" />
    <glyph glyph-name="OE" unicode="&#x152;" horiz-adv-x="1023" 
d="M383 0h578v148h-328v157h281v148h-281v149h312v148h-562q-174 0 -259 -95.5t-85 -267.5v-16q0 -173 85 -272t259 -99v0zM383 148q-97 0 -130.5 63t-33.5 160v16q0 96 33.5 155.5t130.5 59.5h78v-454h-78z" />
    <glyph glyph-name="oe" unicode="&#x153;" horiz-adv-x="1000" 
d="M320 -8q62 0 109 16.5t83 46.5q35 -36 84 -49.5t107 -13.5q38 0 97 6.5t106 24.5v141h-8q-44 -12 -90 -17.5t-89 -5.5q-45 0 -81 10.5t-36 55.5v8h148q87 0 145 36t58 124q0 102 -72 141t-174 39q-57 0 -106.5 -16.5t-84.5 -54.5q-30 32 -81.5 51.5t-114.5 19.5
q-135 0 -208 -67.5t-73 -214.5q0 -158 73 -219.5t208 -61.5v0zM602 316v8q0 50 27.5 70t77.5 20q35 0 62.5 -8t27.5 -43q0 -27 -16.5 -37t-42.5 -10h-136zM320 141q-59 0 -84 29.5t-25 102.5t25 103t84 30q58 0 84 -30t26 -103t-26 -102.5t-84 -29.5v0z" />
    <glyph glyph-name="Scaron" unicode="&#x160;" horiz-adv-x="641" 
d="M271 805h156l141 141v15h-109l-110 -93l-109 93h-109v-15zM266 -8h39q126 0 207.5 52.5t81.5 178.5q0 90 -44 142.5t-128 75.5l-117 32q-30 7 -50.5 22t-20.5 48q0 41 30 53.5t72 12.5h35q32 0 89 -7.5t87 -15.5h8v144q-33 12 -91 20t-93 8h-39q-114 0 -195.5 -50.5
t-81.5 -164.5q0 -97 45.5 -146t110.5 -65l117 -31q33 -9 59.5 -26t26.5 -52q0 -48 -31.5 -65t-77.5 -17h-39q-51 0 -111 10.5t-92 20.5h-8v-145q40 -15 103 -25t108 -10v0z" />
    <glyph glyph-name="scaron" unicode="&#x161;" horiz-adv-x="539" 
d="M221 625h156l141 141v15h-109l-110 -93l-109 93h-109v-15zM223 -8q108 0 192.5 35.5t84.5 144.5q0 78 -47.5 113t-104.5 47l-75 16q-20 4 -37 10.5t-17 24.5q0 20 34.5 23.5t55.5 3.5q37 0 76.5 -5t75.5 -10h8v144q-30 6 -73 11t-83 5q-115 0 -194.5 -41.5t-79.5 -134.5
q0 -56 36 -97t116 -59l86 -20q20 -5 31.5 -11.5t11.5 -23.5q0 -24 -38.5 -27.5t-58.5 -3.5q-42 0 -87.5 5t-88.5 14h-8v-144q38 -9 87 -14.5t97 -5.5v0z" />
    <glyph glyph-name="Ydieresis" unicode="&#x178;" horiz-adv-x="699" 
d="M408 805h125v125h-125v-125zM166 805h125v125h-125v-125zM258 0h172v285l254 457v8h-168l-164 -320l-157 320h-179v-8l242 -457v-285z" />
    <glyph glyph-name="Zcaron" unicode="&#x17d;" horiz-adv-x="633" 
d="M238 805h156l141 141v15h-109l-110 -93l-109 93h-109v-15zM39 0h563v148h-329q73 93 180 255.5t149 244.5v102h-547v-148h324q-45 -86 -154.5 -246.5t-185.5 -253.5v-102z" />
    <glyph glyph-name="zcaron" unicode="&#x17e;" horiz-adv-x="523" 
d="M183 625h156l141 141v15h-109l-110 -93l-109 93h-109v-15zM31 0h469v141h-234q58 58 124 146t102 158v102h-453v-141h246q-47 -76 -115.5 -155.5t-138.5 -148.5v-102z" />
    <glyph glyph-name="florin" unicode="&#x192;" 
d="M31 -188h74q135 0 206.5 64t71.5 198v231h148v148h-148v35q0 58 23 86t82 28h75v148h-75q-135 0 -206 -63.5t-71 -198.5v-35h-117v-148h117v-231q0 -59 -23.5 -86t-82.5 -27h-74v-149z" />
    <glyph glyph-name="circumflex" unicode="&#x2c6;" horiz-adv-x="641" 
d="M102 625h109l109 94l110 -94h109v16l-141 140h-156l-140 -140v-16z" />
    <glyph glyph-name="tilde" unicode="&#x2dc;" horiz-adv-x="641" 
d="M148 625h8q17 22 40.5 42.5t57.5 20.5q29 0 60.5 -31.5t72.5 -31.5q34 0 63.5 22.5t41.5 40.5v93h-8q-18 -23 -40.5 -42.5t-56.5 -19.5q-29 0 -61 31t-72 31q-34 0 -64 -23t-42 -39v-94z" />
    <glyph glyph-name="endash" unicode="&#x2013;" horiz-adv-x="500" 
d="M31 297h438v141h-438v-141z" />
    <glyph glyph-name="emdash" unicode="&#x2014;" horiz-adv-x="1000" 
d="M31 297h938v141h-938v-141z" />
    <glyph glyph-name="quoteleft" unicode="&#x2018;" horiz-adv-x="297" 
d="M31 453h172l78 297h-121l-129 -234v-63z" />
    <glyph glyph-name="quoteright" unicode="&#x2019;" horiz-adv-x="297" 
d="M16 453h121l129 235v62h-172z" />
    <glyph glyph-name="quotesinglbase" unicode="&#x201a;" horiz-adv-x="328" 
d="M0 -125h121l129 234v63h-172z" />
    <glyph glyph-name="quotedblleft" unicode="&#x201c;" horiz-adv-x="555" 
d="M289 453h172l78 297h-121l-129 -234v-63zM31 453h172l78 297h-121l-129 -234v-63z" />
    <glyph glyph-name="quotedblright" unicode="&#x201d;" horiz-adv-x="555" 
d="M273 453h122l128 235v62h-171zM16 453h121l129 235v62h-172z" />
    <glyph glyph-name="quotedblbase" unicode="&#x201e;" horiz-adv-x="555" 
d="M258 -125h121l129 234v63h-172zM0 -125h121l129 234v63h-172z" />
    <glyph glyph-name="dagger" unicode="&#x2020;" horiz-adv-x="602" 
d="M215 -125h172v531h152v141h-152v203h-172v-203h-152v-141h152v-531z" />
    <glyph glyph-name="daggerdbl" unicode="&#x2021;" horiz-adv-x="602" 
d="M215 -125h172v203h152v141h-152v187h152v141h-152v203h-172v-203h-152v-141h152v-187h-152v-141h152v-203z" />
    <glyph glyph-name="bullet" unicode="&#x2022;" horiz-adv-x="500" 
d="M250 125q70 0 129 47t59 141q0 93 -59 140t-129 47q-71 0 -129 -47t-58 -140q0 -94 58 -141t129 -47v0z" />
    <glyph glyph-name="ellipsis" unicode="&#x2026;" horiz-adv-x="922" 
d="M672 0h172v172h-172v-172zM375 0h172v172h-172v-172zM78 0h172v172h-172v-172z" />
    <glyph glyph-name="perthousand" unicode="&#x2030;" horiz-adv-x="1512" 
d="M250 328q102 0 152.5 50t50.5 161t-50.5 161t-152.5 50q-103 0 -153 -50t-50 -161t50 -161t153 -50v0zM297 0h82l355 734v16h-82l-355 -734v-16zM1246 0q102 0 152.5 50t50.5 161t-50.5 161t-152.5 50q-103 0 -153 -50t-50 -161t50 -161t153 -50v0zM781 0q102 0 152.5 50
t50.5 161t-50.5 161t-152.5 50t-152.5 -50t-50.5 -161t50.5 -161t152.5 -50v0zM250 414q-42 0 -56 27t-14 98q0 70 14 97.5t56 27.5q41 0 55.5 -27.5t14.5 -97.5q0 -71 -14.5 -98t-55.5 -27v0zM1246 86q-42 0 -56 27t-14 98q0 70 14 97.5t56 27.5q41 0 55.5 -27.5
t14.5 -97.5q0 -71 -14.5 -98t-55.5 -27v0zM781 86q-41 0 -55.5 27t-14.5 98q0 70 14.5 97.5t55.5 27.5t56 -27.5t15 -97.5q0 -71 -15 -98t-56 -27v0z" />
    <glyph glyph-name="guilsinglleft" unicode="&#x2039;" horiz-adv-x="336" 
d="M270 125h11v125l-117 86l117 86v125h-11l-207 -156v-110z" />
    <glyph glyph-name="guilsinglright" unicode="&#x203a;" horiz-adv-x="336" 
d="M55 125h11l207 156v110l-207 156h-11v-125l117 -86l-117 -86v-125z" />
    <glyph glyph-name="trademark" unicode="&#x2122;" horiz-adv-x="859" 
d="M391 344h109v211l74 -117h39l75 125v-219h109v406h-106l-97 -160l-98 160h-105v-406zM129 344h109v316h98v90h-305v-90h98v-316z" />
  </font>
</defs>
</svg>
