<?xml version="1.0" standalone="no"?>
<!DOCTYPE svg PUBLIC "-//W3C//DTD SVG 1.1//EN" "http://www.w3.org/Graphics/SVG/1.1/DTD/svg11.dtd" >
<svg xmlns="http://www.w3.org/2000/svg" xmlns:xlink="http://www.w3.org/1999/xlink" version="1.1">
<metadata>
Created by FontForge 20170731 at Sun Oct  3 12:48:36 2021
 By Aleksey,,,
</metadata>
<defs>
<font id="Sansa-Normal" horiz-adv-x="625" >
  <font-face 
    font-family="Sansa"
    font-weight="400"
    font-stretch="normal"
    units-per-em="1000"
    panose-1="2 0 5 0 0 0 0 0 0 0"
    ascent="800"
    descent="-200"
    x-height="547"
    cap-height="750"
    bbox="-55 -188 1297 1008"
    underline-thickness="0"
    underline-position="0"
    unicode-range="U+0020-2122"
  />
<missing-glyph horiz-adv-x="500" 
 />
    <glyph glyph-name=".notdef" horiz-adv-x="500" 
 />
    <glyph glyph-name=".null" horiz-adv-x="0" 
 />
    <glyph glyph-name="nonmarkingreturn" horiz-adv-x="333" 
 />
    <glyph glyph-name="space" unicode=" " horiz-adv-x="266" 
 />
    <glyph glyph-name="exclam" unicode="!" horiz-adv-x="273" 
d="M105 219h63l12 531h-86zM94 0h86v94h-86v-94z" />
    <glyph glyph-name="quotedbl" unicode="&#x22;" horiz-adv-x="445" 
d="M273 547h71l8 203h-86zM102 547h70l8 203h-86z" />
    <glyph glyph-name="numbersign" unicode="#" 
d="M156 0h78v172h157v-172h78v172h125v78h-125v250h125v78h-125v172h-78v-172h-157v172h-78v-172h-125v-78h125v-250h-125v-78h125v-172zM234 250v250h157v-250h-157z" />
    <glyph glyph-name="dollar" unicode="$" 
d="M262 -125h78v119q99 9 155 64.5t56 144.5q0 108 -55.5 149.5t-112.5 57.5l-98 28q-45 12 -77 35t-32 82q0 64 38.5 92.5t109.5 28.5h24q37 0 87 -9.5t77 -18.5h8v79q-23 10 -71.5 19.5t-89.5 11.5v109h-78v-112q-93 -11 -146 -65t-53 -135q0 -100 55 -143.5t109 -56.5
l102 -27q51 -13 80 -38.5t29 -86.5q0 -71 -43 -100t-113 -29h-31q-44 0 -102 11t-86 20h-8v-82q22 -9 81 -19t107 -12v-117z" />
    <glyph glyph-name="percent" unicode="%" horiz-adv-x="938" 
d="M238 328q90 0 137 55.5t47 155.5q0 99 -47 155t-137 56q-91 0 -137 -56t-46 -155q0 -100 46 -155.5t137 -55.5v0zM254 0h55l375 738v12h-55l-375 -738v-12zM699 0q90 0 137 55.5t47 155.5q0 99 -47 155t-137 56q-91 0 -137 -56t-46 -155q0 -100 46 -155.5t137 -55.5v0z
M238 387q-59 0 -84 40.5t-25 111.5q0 70 25 111t84 41q58 0 84 -41t26 -111q0 -71 -26 -111.5t-84 -40.5v0zM699 59q-59 0 -84 40.5t-25 111.5q0 70 25 111t84 41q58 0 84 -41t26 -111q0 -71 -26 -111.5t-84 -40.5v0z" />
    <glyph glyph-name="ampersand" unicode="&#x26;" horiz-adv-x="656" 
d="M313 -8q58 0 124 10t102 25v328h70v83h-312q-48 0 -78.5 33t-30.5 84q0 67 32.5 94t92.5 27h31q38 0 83.5 -9.5t72.5 -18.5h8v79q-30 14 -77 22.5t-87 8.5h-31q-112 0 -165.5 -58t-53.5 -145q0 -51 24 -95.5t66 -64.5q-60 -24 -87 -75t-27 -109q0 -103 57 -161t186 -58v0
zM313 74q-77 0 -113 33t-36 104q0 61 34 102.5t99 41.5h148v-265q-18 -6 -58 -11t-74 -5v0z" />
    <glyph glyph-name="quotesingle" unicode="'" horiz-adv-x="273" 
d="M102 547h70l8 203h-86z" />
    <glyph glyph-name="parenleft" unicode="(" horiz-adv-x="352" 
d="M227 -125h62v16q-94 82 -125 188t-31 218v31q0 111 31 217.5t125 188.5v16h-62q-86 -62 -133 -173t-47 -249v-31q0 -139 47 -249.5t133 -172.5v0z" />
    <glyph glyph-name="parenright" unicode=")" horiz-adv-x="352" 
d="M63 -125h62q84 62 132 172.5t48 249.5v31q0 138 -48 249t-132 173h-62v-16q93 -82 124.5 -188.5t31.5 -217.5v-31q0 -112 -31.5 -218t-124.5 -188v-16z" />
    <glyph glyph-name="asterisk" unicode="*" horiz-adv-x="500" 
d="M219 336h62v152l133 -76l31 55l-132 76l132 76l-31 55l-133 -76v152h-62v-153l-133 77l-31 -55l132 -76l-132 -76l31 -55l133 76v-152z" />
    <glyph glyph-name="plus" unicode="+" 
d="M273 148h79v180h179v78h-179v180h-79v-180h-179v-78h179v-180z" />
    <glyph glyph-name="comma" unicode="," horiz-adv-x="273" 
d="M31 -125h59l94 172v47h-94z" />
    <glyph glyph-name="hyphen" unicode="-" horiz-adv-x="406" 
d="M63 328h281v78h-281v-78z" />
    <glyph glyph-name="period" unicode="." horiz-adv-x="273" 
d="M90 0h94v94h-94v-94z" />
    <glyph glyph-name="slash" unicode="/" horiz-adv-x="500" 
d="M31 -125h74l364 859v16h-74l-364 -859v-16z" />
    <glyph glyph-name="zero" unicode="0" 
d="M313 -8q128 0 189 94.5t61 288.5q0 193 -61 288t-189 95q-129 0 -189.5 -95t-60.5 -288q0 -194 60.5 -288.5t189.5 -94.5v0zM313 74q-89 0 -123 71t-34 230q0 164 34 232.5t123 68.5q87 0 121.5 -68.5t34.5 -232.5q0 -165 -34.5 -233t-121.5 -68v0z" />
    <glyph glyph-name="one" unicode="1" 
d="M313 0h93v750h-62l-250 -102v-85h8l211 85v-648z" />
    <glyph glyph-name="two" unicode="2" 
d="M86 0h453v82h-359v12q0 52 17.5 97.5t83.5 81.5l86 47q77 42 120.5 91.5t43.5 131.5q0 105 -58.5 156t-175.5 51h-195v-82h195q64 0 102.5 -24.5t38.5 -100.5q0 -62 -30.5 -95t-87.5 -61l-86 -47q-90 -45 -119 -114.5t-29 -127.5v-98z" />
    <glyph glyph-name="three" unicode="3" 
d="M94 0h195q111 0 184.5 57.5t73.5 169.5q0 75 -27.5 117.5t-85.5 69.5q55 38 76 76.5t21 91.5q0 90 -64.5 129t-169.5 39h-203v-86h195q73 0 111 -20t38 -81q0 -36 -24 -67.5t-70 -57.5h-172v-83h125q73 0 114.5 -28t41.5 -100q0 -74 -45.5 -109.5t-118.5 -35.5h-195v-82z
" />
    <glyph glyph-name="four" unicode="4" 
d="M391 0h93v172h94v78h-94v219h-93v-219h-246q58 105 108.5 235t74.5 265h-94q-24 -141 -70.5 -270t-116.5 -246v-62h344v-172z" />
    <glyph glyph-name="five" unicode="5" 
d="M94 0h203q129 0 185.5 73t56.5 173q0 102 -56.5 162.5t-185.5 60.5h-102v199h313v82h-399v-363h188q75 0 111.5 -31t36.5 -110t-36.5 -121.5t-111.5 -42.5h-203v-82z" />
    <glyph glyph-name="six" unicode="6" 
d="M313 -8q128 0 181 70t53 172q0 117 -51 176t-168 59q-44 0 -85.5 -15t-70.5 -28v43q0 105 54.5 152t148.5 47h109v82h-109q-153 0 -225 -82t-72 -199v-235q0 -117 58.5 -179.5t176.5 -62.5v0zM313 74q-71 0 -106 39t-35 121v115q29 15 70.5 26.5t85.5 11.5q64 0 94.5 -34
t30.5 -119q0 -91 -38.5 -125.5t-101.5 -34.5v0z" />
    <glyph glyph-name="seven" unicode="7" 
d="M219 0h94v109q0 187 75 324t175 255v62h-500v-78h398q-85 -94 -163.5 -239.5t-78.5 -338.5v-94z" />
    <glyph glyph-name="eight" unicode="8" 
d="M297 -8h31q93 0 160 53t67 158q0 77 -34 118t-92 68l24 21q36 33 61 66.5t25 89.5q0 108 -59 150t-152 42h-31q-82 0 -146.5 -42t-64.5 -150q0 -67 30.5 -107t82.5 -64l-35 -28q-42 -33 -68 -66.5t-26 -97.5q0 -111 63.5 -161t163.5 -50v0zM354 419l-96 38q-42 16 -60 42
t-18 67q0 67 32 90.5t85 23.5h31q52 0 84.5 -23.5t32.5 -90.5q0 -47 -20 -73.5t-50 -54.5zM305 78q-59 0 -100 23t-41 102q0 61 26 88.5t52 48.5l31 24l102 -40q42 -17 64 -45.5t22 -75.5q0 -76 -41.5 -100.5t-99.5 -24.5h-15z" />
    <glyph glyph-name="nine" unicode="9" 
d="M141 0h109q152 0 224.5 82t72.5 199v235q0 117 -58.5 179.5t-175.5 62.5q-124 0 -179.5 -70t-55.5 -172q0 -112 51 -173.5t168 -61.5q43 0 84.5 14.5t71.5 28.5v-43q0 -105 -55 -152t-148 -47h-109v-82zM297 363q-65 0 -95 33.5t-30 119.5q0 90 38 125t103 35
q69 0 104.5 -39.5t35.5 -120.5v-115q-30 -15 -71.5 -26.5t-84.5 -11.5v0z" />
    <glyph glyph-name="colon" unicode=":" horiz-adv-x="273" 
d="M90 453h94v94h-94v-94zM90 0h94v94h-94v-94z" />
    <glyph glyph-name="semicolon" unicode=";" horiz-adv-x="273" 
d="M90 453h94v94h-94v-94zM31 -125h59l94 172v47h-94z" />
    <glyph glyph-name="less" unicode="&#x3c;" 
d="M523 105h8v83l-359 179l359 180v82h-8l-429 -223v-78z" />
    <glyph glyph-name="equal" unicode="=" 
d="M94 438h437v78h-437v-78zM94 219h437v78h-437v-78z" />
    <glyph glyph-name="greater" unicode="&#x3e;" 
d="M94 105h8l429 223v78l-429 223h-8v-82l359 -180l-359 -179v-83z" />
    <glyph glyph-name="question" unicode="?" horiz-adv-x="434" 
d="M129 188h86v89l98 118q47 57 68 100.5t21 82.5q0 87 -49 129.5t-154 42.5h-136v-78h136q53 0 85 -22t32 -72q0 -39 -20 -80t-62 -92l-105 -125v-93zM129 0h86v94h-86v-94z" />
    <glyph glyph-name="at" unicode="@" horiz-adv-x="930" 
d="M477 -102q44 0 97.5 6t89.5 18v74h-8q-36 -10 -86 -14.5t-93 -4.5q-141 0 -235 87.5t-94 263.5q0 181 94.5 266.5t241.5 85.5t222 -73.5t75 -208.5q0 -94 -48 -136.5t-100 -42.5h-24v297h-132q-71 0 -125.5 -50.5t-54.5 -137.5q0 -82 46.5 -127t117.5 -45h172
q105 0 169.5 71.5t64.5 170.5q0 170 -106.5 265t-276.5 95q-164 0 -292.5 -107t-128.5 -323q0 -229 130.5 -329.5t283.5 -100.5v0zM461 219q-36 0 -57 28t-21 81q0 58 29 91.5t65 33.5h46v-234h-62z" />
    <glyph glyph-name="A" unicode="A" horiz-adv-x="672" 
d="M23 0h94q13 57 24 99.5t23 84.5h344q11 -42 22 -85t25 -99h93v8q-24 99 -43 166t-42 146q-36 120 -88.5 252.5t-76.5 177.5h-125q-24 -45 -76.5 -177.5t-87.5 -252.5q-24 -79 -43 -146t-43 -166v-8zM188 266q3 12 6.5 25.5t8.5 28.5q29 99 63 191.5t70 160.5
q35 -68 69 -160.5t64 -191.5q4 -15 7.5 -28.5t7.5 -25.5h-296z" />
    <glyph glyph-name="B" unicode="B" horiz-adv-x="648" 
d="M94 0h265q105 0 162 52.5t57 158.5q0 76 -34.5 115t-86.5 57q41 20 73.5 66t32.5 114q0 87 -50 137t-161 50h-258v-750zM188 418v250h164q58 0 87.5 -26t29.5 -87q0 -51 -29.5 -94t-87.5 -43h-164zM188 82v254h164q64 0 98 -30.5t34 -94.5q0 -65 -30.5 -97t-94.5 -32
h-171z" />
    <glyph glyph-name="C" unicode="C" horiz-adv-x="641" 
d="M383 -8h47q46 0 92 13t64 22v78h-8q-22 -9 -64 -20t-84 -11h-47q-112 0 -173.5 65.5t-61.5 188.5v94q0 137 72.5 195.5t177.5 58.5q30 0 54 -3t48 -9v-109h86v168q-24 11 -72 23t-100 12q-165 0 -262 -86t-97 -250v-94q0 -147 78.5 -241.5t249.5 -94.5v0z" />
    <glyph glyph-name="D" unicode="D" horiz-adv-x="711" 
d="M94 0h238q170 0 243 90.5t73 237.5v110q0 155 -81 233.5t-251 78.5h-222v-750zM188 82v586h128q117 0 178 -53.5t61 -176.5v-110q0 -123 -51.5 -184.5t-171.5 -61.5h-144z" />
    <glyph glyph-name="E" unicode="E" horiz-adv-x="578" 
d="M297 0h219v82h-227q-47 0 -74 27t-27 86v160h296v83h-296v230h328v82h-422v-547q0 -105 51.5 -154t151.5 -49v0z" />
    <glyph glyph-name="F" unicode="F" horiz-adv-x="547" 
d="M94 0h94v355h296v83h-296v109q0 64 25 92.5t84 28.5h203v82h-203q-100 0 -151.5 -52t-51.5 -151v-547z" />
    <glyph glyph-name="G" unicode="G" horiz-adv-x="695" 
d="M406 -8h32q46 0 102 13.5t77 25.5v336h-242v-82h156v-198q-20 -6 -43.5 -9.5t-49.5 -3.5h-32q-117 0 -183.5 65.5t-66.5 188.5v102q0 137 77 191.5t189 54.5q54 0 107 -11.5t80 -19.5h8v78q-24 11 -80.5 23t-114.5 12q-156 0 -257.5 -82.5t-101.5 -245.5v-102
q0 -147 86.5 -241.5t256.5 -94.5v0z" />
    <glyph glyph-name="H" unicode="H" horiz-adv-x="742" 
d="M94 0h94v355h367v-355h93v750h-93v-312h-367v312h-94v-750z" />
    <glyph glyph-name="I" unicode="I" horiz-adv-x="281" 
d="M94 0h94v750h-94v-750z" />
    <glyph glyph-name="J" unicode="J" horiz-adv-x="453" 
d="M47 0h94q99 0 158.5 59.5t59.5 159.5v531h-281v-82h188v-449q0 -65 -33.5 -101t-91.5 -36h-94v-82z" />
    <glyph glyph-name="K" unicode="K" horiz-adv-x="641" 
d="M94 0h94v352h42l290 -352h105v8l-316 387l308 347v8h-98l-285 -320h-46v320h-94v-750z" />
    <glyph glyph-name="L" unicode="L" horiz-adv-x="516" 
d="M297 0h203v82h-211q-47 0 -74 27t-27 86v555h-94v-547q0 -100 51.5 -151.5t151.5 -51.5v0z" />
    <glyph glyph-name="M" unicode="M" horiz-adv-x="844" 
d="M94 0h94v574l207 -293h43l218 301v-582h94v750h-78l-250 -355l-250 355h-78v-750z" />
    <glyph glyph-name="N" unicode="N" horiz-adv-x="750" 
d="M94 0h94v555l406 -555h62v750h-93v-555l-407 555h-62v-750z" />
    <glyph glyph-name="O" unicode="O" horiz-adv-x="734" 
d="M367 -8q152 0 232.5 93.5t80.5 258.5v62q0 170 -80.5 261t-232.5 91q-153 0 -232.5 -94t-79.5 -258v-62q0 -171 79.5 -261.5t232.5 -90.5v0zM367 74q-108 0 -163.5 64.5t-55.5 205.5v62q0 141 55.5 205.5t163.5 64.5t163.5 -64.5t55.5 -205.5v-62q0 -141 -55.5 -205.5
t-163.5 -64.5v0z" />
    <glyph glyph-name="P" unicode="P" horiz-adv-x="609" 
d="M94 0h94v250h132q123 0 183 70.5t60 187.5t-55 179.5t-172 62.5h-242v-750zM188 332v336h140q82 0 111.5 -39.5t29.5 -120.5q0 -77 -28 -126.5t-121 -49.5h-132z" />
    <glyph glyph-name="Q" unicode="Q" horiz-adv-x="734" 
d="M469 -188q40 0 73.5 7t51.5 13v78h-8q-24 -9 -47 -12t-59 -3q-44 0 -59 15t-15 47v37q133 12 203.5 104.5t70.5 245.5v62q0 170 -80.5 261t-232.5 91q-153 0 -232.5 -94t-79.5 -258v-62q0 -159 69.5 -249t203.5 -101v-37q0 -64 35 -104.5t106 -40.5v0zM367 74
q-108 0 -163.5 64.5t-55.5 205.5v62q0 141 55.5 205.5t163.5 64.5t163.5 -64.5t55.5 -205.5v-62q0 -141 -55.5 -205.5t-163.5 -64.5v0z" />
    <glyph glyph-name="R" unicode="R" horiz-adv-x="656" 
d="M94 0h94v281h148q52 -44 108 -139t68 -142h97v8q-14 45 -65 142t-118 159q61 26 99 74.5t38 139.5q0 117 -55 172t-172 55h-242v-750zM188 363v305h140q76 0 108.5 -31.5t32.5 -113.5q0 -70 -34.5 -115t-121.5 -45h-125z" />
    <glyph glyph-name="S" unicode="S" horiz-adv-x="586" 
d="M250 -8h31q117 0 183.5 57t66.5 154q0 108 -55.5 149.5t-112.5 57.5l-97 28q-46 12 -78 35t-32 82q0 64 39 92.5t110 28.5h23q38 0 87.5 -9.5t76.5 -18.5h8v79q-24 11 -77.5 21t-94.5 10h-23q-112 0 -177 -56.5t-65 -146.5q0 -100 55 -143.5t109 -56.5l101 -27
q51 -13 80.5 -38.5t29.5 -86.5q0 -71 -43.5 -100t-113.5 -29h-31q-44 0 -101.5 11t-85.5 20h-8v-82q23 -9 85.5 -20t109.5 -11v0z" />
    <glyph glyph-name="T" unicode="T" horiz-adv-x="594" 
d="M250 0h94v668h234v82h-562v-82h234v-668z" />
    <glyph glyph-name="U" unicode="U" horiz-adv-x="719" 
d="M359 -8q123 0 198.5 68.5t75.5 197.5v492h-94v-492q0 -100 -52 -142t-128 -42t-127.5 42t-51.5 142v492h-94v-492q0 -129 72 -197.5t201 -68.5v0z" />
    <glyph glyph-name="V" unicode="V" horiz-adv-x="641" 
d="M262 0h117q46 78 120 285.5t118 456.5v8h-86q-39 -208 -92.5 -378.5t-114.5 -293.5q-62 123 -115.5 293.5t-91.5 378.5h-94v-8q44 -249 117.5 -456.5t121.5 -285.5v0z" />
    <glyph glyph-name="W" unicode="W" horiz-adv-x="992" 
d="M223 0h121q30 60 73 193.5t83 302.5q39 -169 82.5 -302.5t73.5 -193.5h114q40 81 101.5 287t97.5 455v8h-86q-30 -203 -75 -382t-97 -290q-62 141 -102.5 305t-69.5 367h-78q-30 -203 -73.5 -377.5t-98.5 -294.5q-59 135 -101 302t-71 370h-94v-8q35 -249 96.5 -455
t103.5 -287v0z" />
    <glyph glyph-name="X" unicode="X" 
d="M20 0h93l193 300l194 -300h105v8l-244 378l229 356v8h-94l-185 -288l-186 288h-105v-8l236 -366l-236 -368v-8z" />
    <glyph glyph-name="Y" unicode="Y" horiz-adv-x="602" 
d="M258 0h94v309l238 433v8h-90l-191 -359l-192 359h-97v-8l238 -441v-301z" />
    <glyph glyph-name="Z" unicode="Z" horiz-adv-x="609" 
d="M47 0h516v82h-383q78 105 201 306.5t174 330.5v31h-492v-82h371q-51 -129 -178.5 -324.5t-208.5 -300.5v-43z" />
    <glyph glyph-name="bracketleft" unicode="[" horiz-adv-x="375" 
d="M94 -125h219v62h-133v751h133v62h-219v-875z" />
    <glyph glyph-name="backslash" unicode="\" horiz-adv-x="500" 
d="M395 -125h74v16l-364 859h-74v-16z" />
    <glyph glyph-name="bracketright" unicode="]" horiz-adv-x="375" 
d="M63 -125h218v875h-218v-62h132v-751h-132v-62z" />
    <glyph glyph-name="asciicircum" unicode="^" 
d="M51 109h82l180 360l179 -360h82v8l-222 430h-79l-222 -430v-8z" />
    <glyph glyph-name="underscore" unicode="_" 
d="M31 -78h563v78h-563v-78z" />
    <glyph glyph-name="grave" unicode="`" horiz-adv-x="586" 
d="M313 625h62v16l-109 140h-102v-15z" />
    <glyph glyph-name="a" unicode="a" horiz-adv-x="590" 
d="M215 -8q52 0 89 20.5t67 50.5l39 38v-101h86v547h-148q-112 0 -200.5 -76t-88.5 -205v-86q0 -100 45.5 -144t110.5 -44v0zM230 70q-35 0 -60 22.5t-25 87.5v86q0 93 57 148t146 55h62v-282l-31 -31q-24 -24 -66 -55t-83 -31v0z" />
    <glyph glyph-name="b" unicode="b" horiz-adv-x="590" 
d="M94 0h148q111 0 200 76t89 205v86q0 99 -46 143.5t-110 44.5q-53 0 -89.5 -20.5t-66.5 -50.5l-39 -38v304h-86v-750zM180 78v282l31 31q23 23 65 54.5t83 31.5q35 0 60.5 -23t25.5 -87v-86q0 -94 -58 -148.5t-145 -54.5h-62z" />
    <glyph glyph-name="c" unicode="c" horiz-adv-x="500" 
d="M293 -8q46 0 85 11.5t63 23.5v78h-7q-21 -12 -58 -23.5t-83 -11.5q-71 0 -109.5 40t-38.5 117v93q0 85 44.5 121t103.5 36q22 0 44 -5t34 -11v-86h78v141q-24 14 -67 26.5t-89 12.5q-88 0 -161 -60.5t-73 -174.5v-93q0 -118 64 -176.5t170 -58.5v0z" />
    <glyph glyph-name="d" unicode="d" horiz-adv-x="590" 
d="M215 -8q52 0 89 20.5t67 50.5l39 38v-101h86v750h-86v-203h-62q-112 0 -200.5 -76t-88.5 -205v-86q0 -100 45.5 -144t110.5 -44v0zM230 70q-35 0 -60 22.5t-25 87.5v86q0 93 57 148t146 55h62v-282l-31 -31q-24 -24 -66 -55t-83 -31v0z" />
    <glyph glyph-name="e" unicode="e" horiz-adv-x="531" 
d="M293 -8q46 0 92 13t64 22v78h-8q-18 -9 -60 -22t-88 -13q-65 0 -106.5 32t-41.5 109v31h164q81 0 126 41.5t45 114.5q0 82 -53 119.5t-134 37.5q-100 0 -167 -62t-67 -173v-109q0 -117 67 -168t167 -51v0zM145 313v7q0 82 38.5 119.5t109.5 37.5q46 0 74 -17.5t28 -61.5
q0 -41 -23 -63t-87 -22h-140z" />
    <glyph glyph-name="f" unicode="f" horiz-adv-x="344" 
d="M117 0h86v469h141v78h-141v23q0 53 20.5 77.5t73.5 24.5h62v78h-62q-82 0 -131 -46t-49 -134v-23h-86v-78h86v-469z" />
    <glyph glyph-name="g" unicode="g" horiz-adv-x="590" 
d="M105 -188h94q141 0 219 59t78 199v477h-164q-111 0 -192 -73.5t-81 -207.5v-36q0 -102 50.5 -150.5t120.5 -48.5q59 0 99 17.5t73 33.5l8 3v-22q0 -94 -50 -133t-161 -39h-94v-79zM246 109q-47 0 -74 28.5t-27 92.5v36q0 93 49.5 148t137.5 55h78v-314l-15 -7
q-33 -16 -70 -27.5t-79 -11.5v0z" />
    <glyph glyph-name="h" unicode="h" horiz-adv-x="613" 
d="M94 0h86v360l31 31q23 23 61 54.5t80 31.5q34 0 60 -23t26 -87v-367h85v367q0 105 -42 146.5t-106 41.5q-53 0 -90 -21t-66 -50l-39 -38v304h-86v-750z" />
    <glyph glyph-name="i" unicode="i" horiz-adv-x="289" 
d="M109 656h86v94h-86v-94zM109 0h86v547h-179v-78h93v-469z" />
    <glyph glyph-name="j" unicode="j" horiz-adv-x="297" 
d="M117 656h86v94h-86v-94zM-55 -188h24q123 0 178.5 61t55.5 190v484h-180v-78h94v-422q0 -76 -28.5 -116t-104.5 -40h-39v-79z" />
    <glyph glyph-name="k" unicode="k" horiz-adv-x="539" 
d="M94 0h86v258h54l188 -258h98v8l-215 293l207 238v8h-98l-180 -211h-54v414h-86v-750z" />
    <glyph glyph-name="l" unicode="l" horiz-adv-x="273" 
d="M94 0h86v750h-180v-78h94v-672z" />
    <glyph glyph-name="m" unicode="m" horiz-adv-x="957" 
d="M94 0h86v360l31 31q23 23 61 54.5t80 31.5q34 0 60 -23t26 -87v-367h85v360l32 31q23 23 61 54.5t79 31.5q35 0 60.5 -23t25.5 -87v-367h86v367q0 105 -42 146.5t-106 41.5q-54 0 -91 -21.5t-65 -49.5l-40 -39h-7q-16 56 -54.5 83t-86.5 27q-53 0 -90 -21t-66 -50
l-39 -38v101h-86v-547z" />
    <glyph glyph-name="n" unicode="n" horiz-adv-x="613" 
d="M94 0h86v360l31 31q23 23 61 54.5t80 31.5q34 0 60 -23t26 -87v-367h85v367q0 105 -42 146.5t-106 41.5q-53 0 -90 -21t-66 -50l-39 -38v101h-86v-547z" />
    <glyph glyph-name="o" unicode="o" horiz-adv-x="586" 
d="M293 -8q120 0 179 77t59 212q0 123 -56 198.5t-182 75.5q-120 0 -179 -75.5t-59 -198.5q0 -135 56 -212t182 -77v0zM293 70q-88 0 -120 60t-32 151q0 90 32 143t120 53q87 0 119.5 -53t32.5 -143q0 -91 -32.5 -151t-119.5 -60v0z" />
    <glyph glyph-name="p" unicode="p" horiz-adv-x="590" 
d="M94 -188h86v188h62q111 0 200 76t89 205v86q0 99 -46 143.5t-110 44.5q-53 0 -89.5 -20.5t-66.5 -50.5l-39 -38v101h-86v-735zM180 78v282l31 31q23 23 65 54.5t83 31.5q35 0 60.5 -23t25.5 -87v-86q0 -94 -58 -148.5t-145 -54.5h-62z" />
    <glyph glyph-name="q" unicode="q" horiz-adv-x="590" 
d="M410 -188h86v735h-148q-112 0 -200.5 -76t-88.5 -205v-86q0 -100 45.5 -144t110.5 -44q52 0 89 20.5t67 50.5l39 38v-289zM230 70q-35 0 -60 22.5t-25 87.5v86q0 93 57 148t146 55h62v-282l-31 -31q-24 -24 -66 -55t-83 -31v0z" />
    <glyph glyph-name="r" unicode="r" horiz-adv-x="398" 
d="M94 0h86v352l62 62q18 18 45 28.5t57 10.5h39v94h-35q-54 0 -92 -31t-68 -78l-8 -12v121h-86v-547z" />
    <glyph glyph-name="s" unicode="s" horiz-adv-x="516" 
d="M234 -8q85 0 152 36.5t67 127.5q0 79 -44.5 112t-107.5 48l-67 16q-33 8 -55.5 18t-22.5 48q0 41 31.5 60t93.5 19q39 0 72.5 -5t64.5 -11h8v78q-30 6 -67 11t-78 5q-97 0 -154 -42t-57 -115q0 -64 36.5 -98t92.5 -46l82 -20q34 -8 60 -25.5t26 -52.5q0 -47 -34.5 -66.5
t-98.5 -19.5q-39 0 -79.5 5.5t-72.5 14.5h-8v-78q29 -9 74 -14.5t86 -5.5v0z" />
    <glyph glyph-name="t" unicode="t" horiz-adv-x="406" 
d="M305 0h70v78h-55q-65 0 -91 24.5t-26 100.5v266h156v78h-156v125h-86v-125h-86v-78h86v-281q0 -100 50 -144t138 -44v0z" />
    <glyph glyph-name="u" unicode="u" horiz-adv-x="613" 
d="M238 -8q53 0 89.5 20t67.5 51l39 38v-101h86v547h-86v-360l-32 -31q-24 -24 -62 -55t-78 -31q-36 0 -61 22.5t-25 87.5v367h-86v-367q0 -106 41.5 -147t106.5 -41v0z" />
    <glyph glyph-name="v" unicode="v" horiz-adv-x="523" 
d="M211 0h94q40 35 102 150t62 256v141h-86v-141q0 -117 -39 -208.5t-82 -134.5q-45 43 -83 134.5t-38 208.5v141h-86v-141q0 -141 57 -256t99 -150v0z" />
    <glyph glyph-name="w" unicode="w" horiz-adv-x="758" 
d="M188 0h93q21 23 55 83t43 105q9 -45 43 -105t55 -83h93q41 41 87 153t46 253v141h-86v-141q0 -117 -31.5 -208.5t-65.5 -134.5q-36 43 -67 134.5t-31 208.5v141h-86v-141q0 -117 -31.5 -208.5t-66.5 -134.5q-36 43 -66.5 134.5t-30.5 208.5v141h-86v-141
q0 -141 45.5 -253t87.5 -153v0z" />
    <glyph glyph-name="x" unicode="x" horiz-adv-x="500" 
d="M23 0h86l140 205l134 -205h94v8l-177 271l177 260v8h-86l-136 -199l-130 199h-94v-8l173 -266l-181 -265v-8z" />
    <glyph glyph-name="y" unicode="y" horiz-adv-x="613" 
d="M129 -188h94q140 0 218.5 66.5t78.5 207.5v461h-86v-367q-24 -12 -67.5 -25.5t-89.5 -13.5q-47 0 -74 26t-27 91v289h-86v-289q0 -106 49.5 -150.5t114.5 -44.5q58 0 102.5 15t69.5 27l8 4v-31q0 -93 -50 -140t-161 -47h-94v-79z" />
    <glyph glyph-name="z" unicode="z" horiz-adv-x="523" 
d="M55 0h414v78h-305q58 52 162.5 187t134.5 212v70h-391v-78h293q-53 -94 -146 -211.5t-162 -187.5v-70z" />
    <glyph glyph-name="braceleft" unicode="{" horiz-adv-x="469" 
d="M391 -125h47v62h-47q-54 0 -70 22t-16 80v125q0 73 -38.5 105t-90.5 44q52 11 90.5 42.5t38.5 105.5v125q0 58 16 80t70 22h47v62h-47q-100 0 -136 -42.5t-36 -129.5v-125q0 -53 -37.5 -80t-118.5 -33v-55q81 -6 118.5 -33.5t37.5 -79.5v-125q0 -87 36 -129.5t136 -42.5
v0z" />
    <glyph glyph-name="bar" unicode="|" horiz-adv-x="273" 
d="M98 -188h78v1001h-78v-1001z" />
    <glyph glyph-name="braceright" unicode="}" horiz-adv-x="469" 
d="M31 -125h47q99 0 135.5 42.5t36.5 129.5v125q0 52 37 79.5t119 33.5v55q-82 6 -119 33t-37 80v125q0 87 -36.5 129.5t-135.5 42.5h-47v-62h47q52 0 69 -22t17 -80v-125q0 -74 38 -105.5t91 -42.5q-53 -12 -91 -44t-38 -105v-125q0 -58 -17 -80t-69 -22h-47v-62z" />
    <glyph glyph-name="asciitilde" unicode="~" 
d="M94 262h8q20 32 44.5 49t60.5 17q41 0 97.5 -33t109.5 -33q41 0 71.5 21.5t45.5 48.5v74h-8q-18 -33 -41 -49.5t-64 -16.5q-42 0 -98.5 33t-108.5 33q-42 0 -72.5 -22t-44.5 -48v-74z" />
    <glyph glyph-name="exclamdown" unicode="&#xa1;" horiz-adv-x="273" 
d="M94 656h86v94h-86v-94zM94 0h86l-12 531h-63z" />
    <glyph glyph-name="cent" unicode="&#xa2;" 
d="M359 -125h79v117q45 2 87.5 14.5t60.5 20.5v78h-8q-22 -9 -64 -20t-84 -11h-47q-112 0 -173.5 65.5t-61.5 188.5v94q0 137 72.5 195.5t177.5 58.5q30 0 83 -6.5t97 -21.5h8v79q-24 10 -68.5 19t-87.5 12v109h-78v-113q-138 -16 -217.5 -100.5t-79.5 -231.5v-94
q0 -141 73 -234.5t231 -100.5v-118z" />
    <glyph glyph-name="sterling" unicode="&#xa3;" 
d="M63 0h484v82h-344q47 29 62.5 82.5t15.5 101.5v89h219v83h-219v70q0 78 40 119t117 41h109v82h-109q-112 0 -181 -65.5t-69 -176.5v-70h-94v-83h94v-89q0 -48 -16 -100t-63 -84h-46v-82z" />
    <glyph glyph-name="currency" unicode="&#xa4;" 
d="M391 -8h31q46 0 84.5 13t56.5 22v78h-8q-21 -9 -56 -20t-77 -11h-31q-65 0 -118.5 44t-53.5 132v4h293v82h-293v78h293v82h-293v4q0 93 53.5 134.5t118.5 41.5h23q37 0 75.5 -8t65.5 -20h8v79q-21 11 -64.5 21t-84.5 10h-23q-106 0 -186 -69t-80 -189v-4h-94v-82h94v-78
h-94v-82h94v-4q0 -135 80 -196.5t186 -61.5v0z" />
    <glyph glyph-name="yen" unicode="&#xa5;" 
d="M266 0h93v188h204v82h-204v74l239 398v8h-90l-188 -328l-195 328h-98v-8l239 -398v-74h-203v-82h203v-188z" />
    <glyph glyph-name="brokenbar" unicode="&#xa6;" horiz-adv-x="273" 
d="M98 406h78v407h-78v-407zM98 -188h78v407h-78v-407z" />
    <glyph glyph-name="section" unicode="&#xa7;" horiz-adv-x="531" 
d="M461 246h12v90l-207 137q-35 22 -53 48t-18 65q0 41 26 61.5t80 20.5h199v82h-195q-86 0 -144.5 -44.5t-58.5 -123.5q0 -62 32 -104.5t85 -75.5zM31 -188h196q84 0 143.5 45t59.5 123q0 62 -33 104t-84 76l-243 156h-11v-89l207 -137q34 -23 52 -49.5t18 -63.5
q0 -41 -26.5 -61.5t-79.5 -20.5h-199v-83z" />
    <glyph glyph-name="dieresis" unicode="&#xa8;" horiz-adv-x="586" 
d="M375 625h86v94h-86v-94zM133 625h86v94h-86v-94z" />
    <glyph glyph-name="copyright" unicode="&#xa9;" horiz-adv-x="859" 
d="M430 16q163 0 273 101t110 266q0 164 -110 265.5t-273 101.5q-165 0 -274 -101.5t-109 -265.5q0 -165 109 -266t274 -101v0zM430 70q-147 0 -234 89t-87 224t87 223.5t234 88.5q146 0 233 -88.5t87 -223.5t-87 -224t-233 -89v0zM469 180q32 0 54 4.5t40 10.5v47
q-18 -6 -40 -10.5t-54 -4.5q-65 0 -110.5 36.5t-45.5 119.5q0 81 45.5 118.5t110.5 37.5q26 0 49.5 -5t44.5 -11v47q-21 6 -44.5 11t-49.5 5q-91 0 -163 -46t-72 -157q0 -112 72 -157.5t163 -45.5v0z" />
    <glyph glyph-name="ordfeminine" unicode="&#xaa;" horiz-adv-x="492" 
d="M441 750h-128q-100 0 -179 -57.5t-79 -157.5v-58q0 -79 39 -114t97 -35q48 0 81 15.5t60 39.5l35 31v-86h74v422zM51 188h387v62h-387v-62zM367 480l-28 -24q-21 -18 -60 -41.5t-76 -23.5q-32 0 -53 17.5t-21 68.5v58q0 73 52 113t132 40h54v-208z" />
    <glyph glyph-name="guillemotleft" unicode="&#xab;" horiz-adv-x="586" 
d="M523 125h8v94l-140 117l140 117v94h-8l-210 -180v-61zM273 125h8v94l-140 117l140 117v94h-8l-210 -180v-61z" />
    <glyph glyph-name="logicalnot" unicode="&#xac;" 
d="M453 148h78v258h-437v-78h359v-180z" />
    <glyph glyph-name="registered" unicode="&#xae;" horiz-adv-x="859" 
d="M430 16q163 0 273 101t110 266q0 164 -110 265.5t-273 101.5q-165 0 -274 -101.5t-109 -265.5q0 -165 109 -266t274 -101v0zM430 70q-147 0 -234 89t-87 224t87 223.5t234 88.5q146 0 233 -88.5t87 -223.5t-87 -224t-233 -89v0zM281 180h78v140h71l78 -140h81v8l-93 160
q39 11 60.5 41t21.5 72q0 76 -51.5 100.5t-112.5 24.5h-133v-406zM359 367v172h55q35 0 60.5 -18.5t25.5 -59.5q0 -48 -25.5 -71t-60.5 -23h-55z" />
    <glyph glyph-name="macron" unicode="&#xaf;" horiz-adv-x="586" 
d="M176 625h250v63h-250v-63z" />
    <glyph glyph-name="degree" unicode="&#xb0;" horiz-adv-x="469" 
d="M238 328q90 0 137 55.5t47 155.5q0 99 -47 155t-137 56q-91 0 -137 -56t-46 -155q0 -100 46 -155.5t137 -55.5v0zM238 387q-59 0 -84 40.5t-25 111.5q0 70 25 111t84 41q58 0 84 -41t26 -111q0 -71 -26 -111.5t-84 -40.5v0z" />
    <glyph glyph-name="plusminus" unicode="&#xb1;" 
d="M273 148h79v180h179v78h-179v180h-79v-180h-179v-78h179v-180zM94 -78h437v78h-437v-78z" />
    <glyph glyph-name="uni00B2" unicode="&#xb2;" horiz-adv-x="500" 
d="M86 328h324v59h-250v4q0 29 14.5 53t67.5 44l39 16q61 23 91 53t30 76q0 59 -38.5 88t-125.5 29h-121v-59h121q41 0 65.5 -8t24.5 -50q0 -35 -18.5 -52t-64.5 -34l-38 -16q-72 -27 -96.5 -71t-24.5 -77v-55z" />
    <glyph glyph-name="uni00B3" unicode="&#xb3;" horiz-adv-x="500" 
d="M100 328h124q88 0 139 33t51 96q0 42 -21 66t-65 36q35 14 52.5 38.5t17.5 54.5q0 51 -42 74.5t-126 23.5h-121v-59h114q58 0 79.5 -8t21.5 -35q0 -20 -11.5 -37t-35.5 -29h-113v-59h98q26 0 52 -13.5t26 -48.5q0 -42 -29.5 -58t-87.5 -16h-123v-59z" />
    <glyph glyph-name="acute" unicode="&#xb4;" horiz-adv-x="586" 
d="M193 625h63l148 141v15h-101l-110 -140v-16z" />
    <glyph glyph-name="mu" unicode="&#xb5;" horiz-adv-x="613" 
d="M90 -188h86v191q13 -5 28.5 -8t33.5 -3q53 0 89.5 20t67.5 51l39 38v-101h86v547h-86v-360l-32 -31q-24 -24 -62 -55t-78 -31q-36 0 -61 22.5t-25 87.5v367h-86v-735z" />
    <glyph glyph-name="paragraph" unicode="&#xb6;" horiz-adv-x="727" 
d="M547 -188h86v938h-86v-938zM375 -188h86v938h-148q-118 0 -200 -70.5t-82 -210.5q0 -141 82.5 -211t199.5 -70h62v-376z" />
    <glyph glyph-name="periodcentered" unicode="&#xb7;" horiz-adv-x="273" 
d="M90 313h94v93h-94v-93z" />
    <glyph glyph-name="cedilla" unicode="&#xb8;" horiz-adv-x="586" 
d="M156 -188h106q43 0 74 19.5t31 63.5q0 24 -13.5 47t-37.5 35h-62v-12q17 -9 34 -24.5t17 -42.5q0 -23 -16 -34.5t-39 -11.5h-94v-40z" />
    <glyph glyph-name="uni00B9" unicode="&#xb9;" horiz-adv-x="500" 
d="M250 328h74v422h-50l-165 -82v-63h8l133 67v-344z" />
    <glyph glyph-name="ordmasculine" unicode="&#xba;" horiz-adv-x="500" 
d="M250 328q99 0 149 58.5t50 152.5q0 93 -44.5 152t-154.5 59q-100 0 -149.5 -59t-49.5 -152q0 -94 44 -152.5t155 -58.5v0zM51 188h387v62h-387v-62zM250 391q-65 0 -95 40t-30 108q0 70 30 109.5t95 39.5q64 0 94.5 -39.5t30.5 -109.5q0 -72 -30.5 -110t-94.5 -38v0z" />
    <glyph glyph-name="guillemotright" unicode="&#xbb;" horiz-adv-x="586" 
d="M305 125h8l210 181v61l-210 180h-8v-94l140 -117l-140 -117v-94zM55 125h8l210 181v61l-210 180h-8v-94l140 -117l-140 -117v-94z" />
    <glyph glyph-name="onequarter" unicode="&#xbc;" horiz-adv-x="938" 
d="M203 328h74v422h-49l-165 -78v-63h7l133 63v-344zM254 0h55l375 738v12h-55l-375 -738v-12zM754 0h74v86h63v59h-63v117h-74v-117h-160q46 59 81 129.5t54 146.5h-75q-19 -79 -50.5 -151t-87.5 -138v-46h238v-86z" />
    <glyph glyph-name="onehalf" unicode="&#xbd;" horiz-adv-x="938" 
d="M203 328h74v422h-49l-165 -78v-63h7l133 63v-344zM254 0h55l375 738v12h-55l-375 -738v-12zM539 0h324v59h-250v4q0 29 14.5 53t67.5 44l39 16q61 23 91 53t30 76q0 59 -38 88t-126 29h-121v-59h121q41 0 65.5 -8t24.5 -50q0 -35 -18.5 -52t-64.5 -34l-38 -16
q-72 -27 -96.5 -71t-24.5 -77v-55z" />
    <glyph glyph-name="threequarters" unicode="&#xbe;" horiz-adv-x="938" 
d="M51 328h122q88 0 139 33t51 96q0 42 -21 66t-65 36q35 14 53 38.5t18 54.5q0 51 -42 74.5t-126 23.5h-117v-59h109q58 0 79.5 -8t21.5 -35q0 -20 -11.5 -37t-34.5 -29h-114v-59h98q26 0 52 -13.5t26 -48.5q0 -42 -29.5 -58t-87.5 -16h-121v-59zM254 0h55l375 738v12h-55
l-375 -738v-12zM754 0h74v86h63v59h-63v117h-74v-117h-160q46 59 81 129.5t54 146.5h-75q-19 -79 -50.5 -151t-87.5 -138v-46h238v-86z" />
    <glyph glyph-name="questiondown" unicode="&#xbf;" horiz-adv-x="434" 
d="M219 656h86v94h-86v-94zM234 0h137v78h-137q-53 0 -85 21.5t-32 72.5q0 38 20 79.5t62 92.5l106 125v94h-86v-90l-98 -118q-48 -57 -69 -101t-21 -82q0 -88 49 -130t154 -42v0z" />
    <glyph glyph-name="Agrave" unicode="&#xc0;" horiz-adv-x="672" 
d="M23 0h94q13 57 24 99.5t23 84.5h344q11 -42 22 -85t25 -99h93v8q-24 99 -43 166t-42 146q-36 120 -88.5 252.5t-76.5 177.5h-125q-24 -45 -76.5 -177.5t-87.5 -252.5q-24 -79 -43 -146t-43 -166v-8zM188 266q3 12 6.5 25.5t8.5 28.5q29 99 63 191.5t70 160.5
q35 -68 69 -160.5t64 -191.5q4 -15 7.5 -28.5t7.5 -25.5h-296zM311 805h62v15l-109 141h-102v-16z" />
    <glyph glyph-name="Aacute" unicode="&#xc1;" horiz-adv-x="672" 
d="M23 0h94q13 57 24 99.5t23 84.5h344q11 -42 22 -85t25 -99h93v8q-24 99 -43 166t-42 146q-36 120 -88.5 252.5t-76.5 177.5h-125q-24 -45 -76.5 -177.5t-87.5 -252.5q-24 -79 -43 -146t-43 -166v-8zM188 266q3 12 6.5 25.5t8.5 28.5q29 99 63 191.5t70 160.5
q35 -68 69 -160.5t64 -191.5q4 -15 7.5 -28.5t7.5 -25.5h-296zM303 805h62l149 140v16h-102l-109 -141v-15z" />
    <glyph glyph-name="Acircumflex" unicode="&#xc2;" horiz-adv-x="672" 
d="M23 0h94q13 57 24 99.5t23 84.5h344q11 -42 22 -85t25 -99h93v8q-24 99 -43 166t-42 146q-36 120 -88.5 252.5t-76.5 177.5h-125q-24 -45 -76.5 -177.5t-87.5 -252.5q-24 -79 -43 -146t-43 -166v-8zM188 266q3 12 6.5 25.5t8.5 28.5q29 99 63 191.5t70 160.5
q35 -68 69 -160.5t64 -191.5q4 -15 7.5 -28.5t7.5 -25.5h-296zM166 789h63l109 113l109 -113h63v14l-125 142h-94l-125 -140v-16z" />
    <glyph glyph-name="Atilde" unicode="&#xc3;" horiz-adv-x="672" 
d="M23 0h94q13 57 24 99.5t23 84.5h344q11 -42 22 -85t25 -99h93v8q-24 99 -43 166t-42 146q-36 120 -88.5 252.5t-76.5 177.5h-125q-24 -45 -76.5 -177.5t-87.5 -252.5q-24 -79 -43 -146t-43 -166v-8zM188 266q3 12 6.5 25.5t8.5 28.5q29 99 63 191.5t70 160.5
q35 -68 69 -160.5t64 -191.5q4 -15 7.5 -28.5t7.5 -25.5h-296zM162 805h8q17 26 38.5 52t51.5 26q26 0 67.5 -39t80.5 -39q35 0 60.5 28.5t37.5 49.5v62h-8q-18 -27 -39.5 -52.5t-50.5 -25.5q-27 0 -67.5 39t-80.5 39q-36 0 -61 -28.5t-37 -49.5v-62z" />
    <glyph glyph-name="Adieresis" unicode="&#xc4;" horiz-adv-x="672" 
d="M23 0h94q13 57 24 99.5t23 84.5h344q11 -42 22 -85t25 -99h93v8q-24 99 -43 166t-42 146q-36 120 -88.5 252.5t-76.5 177.5h-125q-24 -45 -76.5 -177.5t-87.5 -252.5q-24 -79 -43 -146t-43 -166v-8zM188 266q3 12 6.5 25.5t8.5 28.5q29 99 63 191.5t70 160.5
q35 -68 69 -160.5t64 -191.5q4 -15 7.5 -28.5t7.5 -25.5h-296zM412 805h86v93h-86v-93zM170 805h86v93h-86v-93z" />
    <glyph glyph-name="Aring" unicode="&#xc5;" horiz-adv-x="672" 
d="M23 0h94q13 57 24 99.5t23 84.5h344q11 -42 22 -85t25 -99h93v8q-24 99 -43 166t-42 146q-36 120 -88.5 252.5t-76.5 177.5h-125q-24 -45 -76.5 -177.5t-87.5 -252.5q-24 -79 -43 -146t-43 -166v-8zM188 266q3 12 6.5 25.5t8.5 28.5q29 99 63 191.5t70 160.5
q35 -68 69 -160.5t64 -191.5q4 -15 7.5 -28.5t7.5 -25.5h-296zM338 805q58 0 85.5 30t27.5 71t-27.5 71.5t-85.5 30.5q-59 0 -86 -30.5t-27 -71.5t27 -71t86 -30v0zM338 844q-36 0 -51.5 19t-15.5 43t15.5 43.5t51.5 19.5q35 0 50.5 -19.5t15.5 -43.5t-15.5 -43t-50.5 -19v0
z" />
    <glyph glyph-name="AE" unicode="&#xc6;" horiz-adv-x="883" 
d="M23 0h94q13 57 24 99.5t23 84.5h234q5 -96 56.5 -140t147.5 -44h218v82h-226q-48 0 -75 27t-27 86v160h297v83h-297v230h328v82h-547q-24 -45 -76.5 -177.5t-87.5 -252.5q-24 -79 -43 -146t-43 -166v-8zM188 266q3 12 6.5 25.5t8.5 28.5q29 99 63 191.5t70 160.5h62v-406
h-210z" />
    <glyph glyph-name="Ccedilla" unicode="&#xc7;" horiz-adv-x="641" 
d="M383 -8h47q46 0 92 13t64 22v78h-8q-22 -9 -64 -20t-84 -11h-47q-112 0 -173.5 65.5t-61.5 188.5v94q0 137 72.5 195.5t177.5 58.5q30 0 54 -3t48 -9v-109h86v168q-24 11 -72 23t-100 12q-165 0 -262 -86t-97 -250v-94q0 -147 78.5 -241.5t249.5 -94.5v0zM283 -188h106
q43 0 74 19.5t31 63.5q0 24 -13.5 47t-37.5 35h-62v-12q17 -9 34 -24.5t17 -42.5q0 -23 -16 -34.5t-39 -11.5h-94v-40z" />
    <glyph glyph-name="Egrave" unicode="&#xc8;" horiz-adv-x="578" 
d="M297 0h219v82h-227q-47 0 -74 27t-27 86v160h296v83h-296v230h328v82h-422v-547q0 -105 51.5 -154t151.5 -49v0zM264 805h62v15l-109 141h-102v-16z" />
    <glyph glyph-name="Eacute" unicode="&#xc9;" horiz-adv-x="578" 
d="M297 0h219v82h-227q-47 0 -74 27t-27 86v160h296v83h-296v230h328v82h-422v-547q0 -105 51.5 -154t151.5 -49v0zM256 805h62l149 140v16h-102l-109 -141v-15z" />
    <glyph glyph-name="Ecircumflex" unicode="&#xca;" horiz-adv-x="578" 
d="M297 0h219v82h-227q-47 0 -74 27t-27 86v160h296v83h-296v230h328v82h-422v-547q0 -105 51.5 -154t151.5 -49v0zM119 789h63l109 113l109 -113h63v14l-125 142h-94l-125 -140v-16z" />
    <glyph glyph-name="Edieresis" unicode="&#xcb;" horiz-adv-x="578" 
d="M297 0h219v82h-227q-47 0 -74 27t-27 86v160h296v83h-296v230h328v82h-422v-547q0 -105 51.5 -154t151.5 -49v0zM365 805h86v93h-86v-93zM123 805h86v93h-86v-93z" />
    <glyph glyph-name="Igrave" unicode="&#xcc;" horiz-adv-x="281" 
d="M94 0h94v750h-94v-750zM115 805h63v15l-110 141h-101v-16z" />
    <glyph glyph-name="Iacute" unicode="&#xcd;" horiz-adv-x="281" 
d="M94 0h94v750h-94v-750zM107 805h63l148 140v16h-101l-110 -141v-15z" />
    <glyph glyph-name="Icircumflex" unicode="&#xce;" horiz-adv-x="281" 
d="M94 0h94v750h-94v-750zM-29 789h62l110 113l109 -113h62v14l-125 142h-93l-125 -140v-16z" />
    <glyph glyph-name="Idieresis" unicode="&#xcf;" horiz-adv-x="281" 
d="M94 0h94v750h-94v-750zM217 805h86v93h-86v-93zM-25 805h86v93h-86v-93z" />
    <glyph glyph-name="Eth" unicode="&#xd0;" horiz-adv-x="711" 
d="M94 0h238q170 0 243 90.5t73 237.5v110q0 155 -81 233.5t-251 78.5h-222v-312h-63v-83h63v-355zM188 82v273h125v83h-125v230h128q117 0 178 -53.5t61 -176.5v-110q0 -123 -51.5 -184.5t-171.5 -61.5h-144z" />
    <glyph glyph-name="Ntilde" unicode="&#xd1;" horiz-adv-x="750" 
d="M94 0h94v555l406 -555h62v750h-93v-555l-407 555h-62v-750zM201 805h8q17 26 38.5 52t51.5 26q26 0 67.5 -39t80.5 -39q35 0 60.5 28.5t37.5 49.5v62h-8q-18 -27 -39.5 -52.5t-50.5 -25.5q-27 0 -67 39t-81 39q-36 0 -61 -28.5t-37 -49.5v-62z" />
    <glyph glyph-name="Ograve" unicode="&#xd2;" horiz-adv-x="734" 
d="M367 -8q152 0 232.5 93.5t80.5 258.5v62q0 170 -80.5 261t-232.5 91q-153 0 -232.5 -94t-79.5 -258v-62q0 -171 79.5 -261.5t232.5 -90.5v0zM367 74q-108 0 -163.5 64.5t-55.5 205.5v62q0 141 55.5 205.5t163.5 64.5t163.5 -64.5t55.5 -205.5v-62q0 -141 -55.5 -205.5
t-163.5 -64.5v0zM342 805h62v15l-109 141h-102v-16z" />
    <glyph glyph-name="Oacute" unicode="&#xd3;" horiz-adv-x="734" 
d="M367 -8q152 0 232.5 93.5t80.5 258.5v62q0 170 -80.5 261t-232.5 91q-153 0 -232.5 -94t-79.5 -258v-62q0 -171 79.5 -261.5t232.5 -90.5v0zM367 74q-108 0 -163.5 64.5t-55.5 205.5v62q0 141 55.5 205.5t163.5 64.5t163.5 -64.5t55.5 -205.5v-62q0 -141 -55.5 -205.5
t-163.5 -64.5v0zM334 805h62l149 140v16h-102l-109 -141v-15z" />
    <glyph glyph-name="Ocircumflex" unicode="&#xd4;" horiz-adv-x="734" 
d="M367 -8q152 0 232.5 93.5t80.5 258.5v62q0 170 -80.5 261t-232.5 91q-153 0 -232.5 -94t-79.5 -258v-62q0 -171 79.5 -261.5t232.5 -90.5v0zM367 74q-108 0 -163.5 64.5t-55.5 205.5v62q0 141 55.5 205.5t163.5 64.5t163.5 -64.5t55.5 -205.5v-62q0 -141 -55.5 -205.5
t-163.5 -64.5v0zM197 789h63l109 113l110 -113h62v14l-125 142h-94l-125 -140v-16z" />
    <glyph glyph-name="Otilde" unicode="&#xd5;" horiz-adv-x="734" 
d="M367 -8q152 0 232.5 93.5t80.5 258.5v62q0 170 -80.5 261t-232.5 91q-153 0 -232.5 -94t-79.5 -258v-62q0 -171 79.5 -261.5t232.5 -90.5v0zM367 74q-108 0 -163.5 64.5t-55.5 205.5v62q0 141 55.5 205.5t163.5 64.5t163.5 -64.5t55.5 -205.5v-62q0 -141 -55.5 -205.5
t-163.5 -64.5v0zM193 805h8q18 26 39 52t51 26q26 0 68 -39t80 -39q35 0 60.5 28.5t37.5 49.5v62h-8q-18 -27 -39 -52.5t-51 -25.5q-27 0 -67 39t-81 39q-36 0 -61 -28.5t-37 -49.5v-62z" />
    <glyph glyph-name="Odieresis" unicode="&#xd6;" horiz-adv-x="734" 
d="M367 -8q152 0 232.5 93.5t80.5 258.5v62q0 170 -80.5 261t-232.5 91q-153 0 -232.5 -94t-79.5 -258v-62q0 -171 79.5 -261.5t232.5 -90.5v0zM367 74q-108 0 -163.5 64.5t-55.5 205.5v62q0 141 55.5 205.5t163.5 64.5t163.5 -64.5t55.5 -205.5v-62q0 -141 -55.5 -205.5
t-163.5 -64.5v0zM443 805h86v93h-86v-93zM201 805h86v93h-86v-93z" />
    <glyph glyph-name="multiply" unicode="&#xd7;" 
d="M186 185l127 127l126 -127l56 55l-127 127l127 127l-56 56l-126 -127l-127 127l-56 -56l127 -127l-127 -127z" />
    <glyph glyph-name="Oslash" unicode="&#xd8;" horiz-adv-x="734" 
d="M367 -8q152 0 232.5 93.5t80.5 258.5v62q0 78 -17.5 139t-50.5 106l68 87v12h-55l-48 -61q-39 33 -91.5 51t-118.5 18q-153 0 -232.5 -94t-79.5 -258v-62q0 -78 17 -139.5t50 -105.5l-67 -87v-12h54l47 61q39 -34 92 -51.5t119 -17.5v0zM181 175q-17 31 -25 73t-8 96v62
q0 141 55.5 205.5t163.5 64.5q51 0 90 -14t66 -43zM367 74q-51 0 -90 13.5t-66 43.5l343 444q15 -32 23.5 -73.5t8.5 -95.5v-62q0 -141 -55.5 -205.5t-163.5 -64.5v0z" />
    <glyph glyph-name="Ugrave" unicode="&#xd9;" horiz-adv-x="719" 
d="M359 -8q123 0 198.5 68.5t75.5 197.5v492h-94v-492q0 -100 -52 -142t-128 -42t-127.5 42t-51.5 142v492h-94v-492q0 -129 72 -197.5t201 -68.5v0zM334 805h62v15l-109 141h-101v-16z" />
    <glyph glyph-name="Uacute" unicode="&#xda;" horiz-adv-x="719" 
d="M359 -8q123 0 198.5 68.5t75.5 197.5v492h-94v-492q0 -100 -52 -142t-128 -42t-127.5 42t-51.5 142v492h-94v-492q0 -129 72 -197.5t201 -68.5v0zM326 805h63l148 140v16h-101l-110 -141v-15z" />
    <glyph glyph-name="Ucircumflex" unicode="&#xdb;" horiz-adv-x="719" 
d="M359 -8q123 0 198.5 68.5t75.5 197.5v492h-94v-492q0 -100 -52 -142t-128 -42t-127.5 42t-51.5 142v492h-94v-492q0 -129 72 -197.5t201 -68.5v0zM189 789h63l109 113l110 -113h62v14l-125 142h-94l-125 -140v-16z" />
    <glyph glyph-name="Udieresis" unicode="&#xdc;" horiz-adv-x="719" 
d="M359 -8q123 0 198.5 68.5t75.5 197.5v492h-94v-492q0 -100 -52 -142t-128 -42t-127.5 42t-51.5 142v492h-94v-492q0 -129 72 -197.5t201 -68.5v0zM436 805h85v93h-85v-93zM193 805h86v93h-86v-93z" />
    <glyph glyph-name="Yacute" unicode="&#xdd;" horiz-adv-x="602" 
d="M258 0h94v309l238 433v8h-90l-191 -359l-192 359h-97v-8l238 -441v-301zM268 805h62l149 140v16h-102l-109 -141v-15z" />
    <glyph glyph-name="Thorn" unicode="&#xde;" horiz-adv-x="609" 
d="M94 0h94v125h132q123 0 183 70.5t60 187.5t-55 179.5t-172 62.5h-148v125h-94v-750zM188 207v336h140q82 0 111.5 -39.5t29.5 -120.5q0 -77 -28 -126.5t-121 -49.5h-132z" />
    <glyph glyph-name="germandbls" unicode="&#xdf;" horiz-adv-x="727" 
d="M469 -8q96 0 145.5 46.5t49.5 121.5q0 73 -39 100t-90 56l-35 20q-22 12 -38.5 26t-16.5 44q0 29 23.5 50.5t39.5 35.5q26 23 48 50.5t22 74.5q0 82 -68.5 107.5t-150.5 25.5q-102 0 -172 -41t-70 -143v-19h-86v-78h86v-469h86v563q0 69 43 89t113 20q47 0 90 -10t43 -57
q0 -24 -11 -44t-32 -38q-27 -23 -58.5 -53.5t-31.5 -71.5q0 -56 28.5 -85.5t73.5 -50.5l47 -24q29 -15 49.5 -29t20.5 -49q0 -47 -32.5 -68.5t-84.5 -21.5q-30 0 -55.5 3.5t-57.5 12.5h-8v-78q26 -9 58.5 -12.5t70.5 -3.5v0z" />
    <glyph glyph-name="agrave" unicode="&#xe0;" horiz-adv-x="590" 
d="M215 -8q52 0 89 20.5t67 50.5l39 38v-101h86v547h-148q-112 0 -200.5 -76t-88.5 -205v-86q0 -100 45.5 -144t110.5 -44v0zM230 70q-35 0 -60 22.5t-25 87.5v86q0 93 57 148t146 55h62v-282l-31 -31q-24 -24 -66 -55t-83 -31v0zM270 625h62v16l-109 140h-102v-15z" />
    <glyph glyph-name="aacute" unicode="&#xe1;" horiz-adv-x="590" 
d="M215 -8q52 0 89 20.5t67 50.5l39 38v-101h86v547h-148q-112 0 -200.5 -76t-88.5 -205v-86q0 -100 45.5 -144t110.5 -44v0zM230 70q-35 0 -60 22.5t-25 87.5v86q0 93 57 148t146 55h62v-282l-31 -31q-24 -24 -66 -55t-83 -31v0zM262 625h62l149 141v15h-102l-109 -140v-16
z" />
    <glyph glyph-name="acircumflex" unicode="&#xe2;" horiz-adv-x="590" 
d="M215 -8q52 0 89 20.5t67 50.5l39 38v-101h86v547h-148q-112 0 -200.5 -76t-88.5 -205v-86q0 -100 45.5 -144t110.5 -44v0zM230 70q-35 0 -60 22.5t-25 87.5v86q0 93 57 148t146 55h62v-282l-31 -31q-24 -24 -66 -55t-83 -31v0zM125 609h63l109 114l109 -114h63v14
l-125 143h-94l-125 -141v-16z" />
    <glyph glyph-name="atilde" unicode="&#xe3;" horiz-adv-x="590" 
d="M215 -8q52 0 89 20.5t67 50.5l39 38v-101h86v547h-148q-112 0 -200.5 -76t-88.5 -205v-86q0 -100 45.5 -144t110.5 -44v0zM230 70q-35 0 -60 22.5t-25 87.5v86q0 93 57 148t146 55h62v-282l-31 -31q-24 -24 -66 -55t-83 -31v0zM121 625h8q17 26 38.5 52t51.5 26
q26 0 67.5 -39t80.5 -39q35 0 60.5 28.5t37.5 49.5v63h-8q-18 -27 -39.5 -52.5t-50.5 -25.5q-27 0 -67.5 39t-80.5 39q-36 0 -61 -29t-37 -49v-63z" />
    <glyph glyph-name="adieresis" unicode="&#xe4;" horiz-adv-x="590" 
d="M215 -8q52 0 89 20.5t67 50.5l39 38v-101h86v547h-148q-112 0 -200.5 -76t-88.5 -205v-86q0 -100 45.5 -144t110.5 -44v0zM230 70q-35 0 -60 22.5t-25 87.5v86q0 93 57 148t146 55h62v-282l-31 -31q-24 -24 -66 -55t-83 -31v0zM371 625h86v94h-86v-94zM129 625h86v94h-86
v-94z" />
    <glyph glyph-name="aring" unicode="&#xe5;" horiz-adv-x="590" 
d="M215 -8q52 0 89 20.5t67 50.5l39 38v-101h86v547h-148q-112 0 -200.5 -76t-88.5 -205v-86q0 -100 45.5 -144t110.5 -44v0zM230 70q-35 0 -60 22.5t-25 87.5v86q0 93 57 148t146 55h62v-282l-31 -31q-24 -24 -66 -55t-83 -31v0zM297 625q58 0 85.5 30t27.5 72
q0 40 -27.5 70.5t-85.5 30.5q-59 0 -86 -30.5t-27 -70.5q0 -42 27 -72t86 -30v0zM297 664q-36 0 -51.5 19.5t-15.5 43.5q0 23 15.5 42.5t51.5 19.5q35 0 50.5 -19.5t15.5 -42.5q0 -24 -15.5 -43.5t-50.5 -19.5v0z" />
    <glyph glyph-name="ae" unicode="&#xe6;" horiz-adv-x="883" 
d="M215 -8q52 0 89 20.5t67 50.5l56 55q25 -65 78.5 -95.5t139.5 -30.5q46 0 92 13t64 22v78h-8q-18 -9 -60 -22t-88 -13q-65 0 -107 32t-42 109v31h164q82 0 127 41.5t45 114.5q0 82 -53 119.5t-134 37.5q-44 0 -81.5 -12t-67.5 -34v38h-148q-112 0 -200.5 -76t-88.5 -205
v-86q0 -100 45.5 -144t110.5 -44v0zM496 313v7q0 82 39 119.5t110 37.5q46 0 73.5 -17.5t27.5 -61.5q0 -41 -22.5 -63t-86.5 -22h-141zM230 70q-35 0 -60 22.5t-25 87.5v86q0 93 57 148t146 55h62v-281l-31 -32q-24 -24 -66 -55t-83 -31v0z" />
    <glyph glyph-name="ccedilla" unicode="&#xe7;" horiz-adv-x="500" 
d="M293 -8q46 0 85 11.5t63 23.5v78h-7q-21 -12 -58 -23.5t-83 -11.5q-71 0 -109.5 40t-38.5 117v93q0 85 44.5 121t103.5 36q22 0 44 -5t34 -11v-86h78v141q-24 14 -67 26.5t-89 12.5q-88 0 -161 -60.5t-73 -174.5v-93q0 -118 64 -176.5t170 -58.5v0zM154 -188h106
q43 0 74 19.5t31 63.5q0 24 -13.5 47t-37.5 35h-62v-12q17 -9 34 -24.5t17 -42.5q0 -23 -16 -34.5t-39 -11.5h-94v-40z" />
    <glyph glyph-name="egrave" unicode="&#xe8;" horiz-adv-x="531" 
d="M293 -8q46 0 92 13t64 22v78h-8q-18 -9 -60 -22t-88 -13q-65 0 -106.5 32t-41.5 109v31h164q81 0 126 41.5t45 114.5q0 82 -53 119.5t-134 37.5q-100 0 -167 -62t-67 -173v-109q0 -117 67 -168t167 -51v0zM145 313v7q0 82 38.5 119.5t109.5 37.5q46 0 74 -17.5t28 -61.5
q0 -41 -23 -63t-87 -22h-140zM240 625h63v16l-110 140h-101v-15z" />
    <glyph glyph-name="eacute" unicode="&#xe9;" horiz-adv-x="531" 
d="M293 -8q46 0 92 13t64 22v78h-8q-18 -9 -60 -22t-88 -13q-65 0 -106.5 32t-41.5 109v31h164q81 0 126 41.5t45 114.5q0 82 -53 119.5t-134 37.5q-100 0 -167 -62t-67 -173v-109q0 -117 67 -168t167 -51v0zM145 313v7q0 82 38.5 119.5t109.5 37.5q46 0 74 -17.5t28 -61.5
q0 -41 -23 -63t-87 -22h-140zM232 625h63l148 141v15h-101l-110 -140v-16z" />
    <glyph glyph-name="ecircumflex" unicode="&#xea;" horiz-adv-x="531" 
d="M293 -8q46 0 92 13t64 22v78h-8q-18 -9 -60 -22t-88 -13q-65 0 -106.5 32t-41.5 109v31h164q81 0 126 41.5t45 114.5q0 82 -53 119.5t-134 37.5q-100 0 -167 -62t-67 -173v-109q0 -117 67 -168t167 -51v0zM145 313v7q0 82 38.5 119.5t109.5 37.5q46 0 74 -17.5t28 -61.5
q0 -41 -23 -63t-87 -22h-140zM96 609h62l110 114l109 -114h62v14l-125 143h-93l-125 -141v-16z" />
    <glyph glyph-name="edieresis" unicode="&#xeb;" horiz-adv-x="531" 
d="M293 -8q46 0 92 13t64 22v78h-8q-18 -9 -60 -22t-88 -13q-65 0 -106.5 32t-41.5 109v31h164q81 0 126 41.5t45 114.5q0 82 -53 119.5t-134 37.5q-100 0 -167 -62t-67 -173v-109q0 -117 67 -168t167 -51v0zM145 313v7q0 82 38.5 119.5t109.5 37.5q46 0 74 -17.5t28 -61.5
q0 -41 -23 -63t-87 -22h-140zM342 625h86v94h-86v-94zM100 625h86v94h-86v-94z" />
    <glyph glyph-name="igrave" unicode="&#xec;" horiz-adv-x="289" 
d="M109 0h86v547h-179v-78h93v-469zM119 625h63v16l-110 140h-101v-15z" />
    <glyph glyph-name="iacute" unicode="&#xed;" horiz-adv-x="289" 
d="M109 0h86v547h-179v-78h93v-469zM111 625h63l148 141v15h-101l-110 -140v-16z" />
    <glyph glyph-name="icircumflex" unicode="&#xee;" horiz-adv-x="289" 
d="M109 0h86v547h-179v-78h93v-469zM-25 609h62l109 114l110 -114h62v14l-125 143h-93l-125 -141v-16z" />
    <glyph glyph-name="idieresis" unicode="&#xef;" horiz-adv-x="289" 
d="M109 0h86v547h-179v-78h93v-469zM221 625h86v94h-86v-94zM-21 625h85v94h-85v-94z" />
    <glyph glyph-name="eth" unicode="&#xf0;" horiz-adv-x="590" 
d="M215 -8q52 0 89 20.5t67 50.5l39 38v-101h86v617h63v78h-63v55h-86v-55h-125v-78h125v-70h-62q-112 0 -200.5 -76t-88.5 -205v-86q0 -100 45.5 -144t110.5 -44v0zM230 70q-35 0 -60 22.5t-25 87.5v86q0 93 57 148t146 55h62v-282l-31 -31q-24 -24 -66 -55t-83 -31v0z" />
    <glyph glyph-name="ntilde" unicode="&#xf1;" horiz-adv-x="613" 
d="M94 0h86v360l31 31q23 23 61 54.5t80 31.5q34 0 60 -23t26 -87v-367h85v367q0 105 -42 146.5t-106 41.5q-53 0 -90 -21t-66 -50l-39 -38v101h-86v-547zM133 625h8q17 26 38 52t51 26q27 0 68.5 -39t80.5 -39q35 0 60.5 28.5t37.5 49.5v63h-8q-18 -27 -39.5 -52.5
t-50.5 -25.5q-27 0 -67.5 39t-81.5 39q-35 0 -60.5 -29t-36.5 -49v-63z" />
    <glyph glyph-name="ograve" unicode="&#xf2;" horiz-adv-x="586" 
d="M293 -8q120 0 179 77t59 212q0 123 -56 198.5t-182 75.5q-120 0 -179 -75.5t-59 -198.5q0 -135 56 -212t182 -77v0zM293 70q-88 0 -120 60t-32 151q0 90 32 143t120 53q87 0 119.5 -53t32.5 -143q0 -91 -32.5 -151t-119.5 -60v0zM268 625h62v16l-109 140h-102v-15z" />
    <glyph glyph-name="oacute" unicode="&#xf3;" horiz-adv-x="586" 
d="M293 -8q120 0 179 77t59 212q0 123 -56 198.5t-182 75.5q-120 0 -179 -75.5t-59 -198.5q0 -135 56 -212t182 -77v0zM293 70q-88 0 -120 60t-32 151q0 90 32 143t120 53q87 0 119.5 -53t32.5 -143q0 -91 -32.5 -151t-119.5 -60v0zM260 625h62l149 141v15h-102l-109 -140
v-16z" />
    <glyph glyph-name="ocircumflex" unicode="&#xf4;" horiz-adv-x="586" 
d="M293 -8q120 0 179 77t59 212q0 123 -56 198.5t-182 75.5q-120 0 -179 -75.5t-59 -198.5q0 -135 56 -212t182 -77v0zM293 70q-88 0 -120 60t-32 151q0 90 32 143t120 53q87 0 119.5 -53t32.5 -143q0 -91 -32.5 -151t-119.5 -60v0zM123 609h63l109 114l109 -114h63v14
l-125 143h-94l-125 -141v-16z" />
    <glyph glyph-name="otilde" unicode="&#xf5;" horiz-adv-x="586" 
d="M293 -8q120 0 179 77t59 212q0 123 -56 198.5t-182 75.5q-120 0 -179 -75.5t-59 -198.5q0 -135 56 -212t182 -77v0zM293 70q-88 0 -120 60t-32 151q0 90 32 143t120 53q87 0 119.5 -53t32.5 -143q0 -91 -32.5 -151t-119.5 -60v0zM119 625h8q17 26 38.5 52t51.5 26
q26 0 67.5 -39t80.5 -39q35 0 60.5 28.5t37.5 49.5v63h-8q-18 -27 -39.5 -52.5t-50.5 -25.5q-27 0 -67.5 39t-80.5 39q-36 0 -61 -29t-37 -49v-63z" />
    <glyph glyph-name="odieresis" unicode="&#xf6;" horiz-adv-x="586" 
d="M293 -8q120 0 179 77t59 212q0 123 -56 198.5t-182 75.5q-120 0 -179 -75.5t-59 -198.5q0 -135 56 -212t182 -77v0zM293 70q-88 0 -120 60t-32 151q0 90 32 143t120 53q87 0 119.5 -53t32.5 -143q0 -91 -32.5 -151t-119.5 -60v0zM369 625h86v94h-86v-94zM127 625h86v94
h-86v-94z" />
    <glyph glyph-name="divide" unicode="&#xf7;" 
d="M273 469h79v78h-79v-78zM94 328h437v78h-437v-78zM273 188h79v78h-79v-78z" />
    <glyph glyph-name="oslash" unicode="&#xf8;" horiz-adv-x="586" 
d="M293 -8q120 0 179 77t59 212q0 58 -12 106.5t-38 84.5l50 63v12h-54l-31 -38q-29 21 -67 33.5t-86 12.5q-120 0 -179 -75.5t-59 -198.5q0 -65 11.5 -116.5t38.5 -88.5l-50 -64v-12h54l32 39q27 -23 65 -35t87 -12v0zM163 149q-13 27 -17.5 60t-4.5 72q0 90 32 143t120 53
q34 0 59.5 -9t43.5 -24zM293 70q-33 0 -58 9t-43 26l234 296q9 -24 14 -54t5 -66q0 -91 -32.5 -151t-119.5 -60v0z" />
    <glyph glyph-name="ugrave" unicode="&#xf9;" horiz-adv-x="613" 
d="M238 -8q53 0 89.5 20t67.5 51l39 38v-101h86v547h-86v-360l-32 -31q-24 -24 -62 -55t-78 -31q-36 0 -61 22.5t-25 87.5v367h-86v-367q0 -106 41.5 -147t106.5 -41v0zM281 625h63v16l-110 140h-101v-15z" />
    <glyph glyph-name="uacute" unicode="&#xfa;" horiz-adv-x="613" 
d="M238 -8q53 0 89.5 20t67.5 51l39 38v-101h86v547h-86v-360l-32 -31q-24 -24 -62 -55t-78 -31q-36 0 -61 22.5t-25 87.5v367h-86v-367q0 -106 41.5 -147t106.5 -41v0zM273 625h63l148 141v15h-101l-110 -140v-16z" />
    <glyph glyph-name="ucircumflex" unicode="&#xfb;" horiz-adv-x="613" 
d="M238 -8q53 0 89.5 20t67.5 51l39 38v-101h86v547h-86v-360l-32 -31q-24 -24 -62 -55t-78 -31q-36 0 -61 22.5t-25 87.5v367h-86v-367q0 -106 41.5 -147t106.5 -41v0zM137 609h62l110 114l109 -114h62v14l-125 143h-93l-125 -141v-16z" />
    <glyph glyph-name="udieresis" unicode="&#xfc;" horiz-adv-x="613" 
d="M238 -8q53 0 89.5 20t67.5 51l39 38v-101h86v547h-86v-360l-32 -31q-24 -24 -62 -55t-78 -31q-36 0 -61 22.5t-25 87.5v367h-86v-367q0 -106 41.5 -147t106.5 -41v0zM383 625h86v94h-86v-94zM141 625h86v94h-86v-94z" />
    <glyph glyph-name="yacute" unicode="&#xfd;" horiz-adv-x="613" 
d="M129 -188h94q140 0 218.5 66.5t78.5 207.5v461h-86v-367q-24 -12 -67.5 -25.5t-89.5 -13.5q-47 0 -74 26t-27 91v289h-86v-289q0 -106 49.5 -150.5t114.5 -44.5q58 0 102.5 15t69.5 27l8 4v-31q0 -93 -50 -140t-161 -47h-94v-79zM273 625h63l148 141v15h-101l-110 -140
v-16z" />
    <glyph glyph-name="thorn" unicode="&#xfe;" horiz-adv-x="590" 
d="M94 -188h86v188h62q111 0 200 76t89 205v86q0 99 -46 143.5t-110 44.5q-53 0 -89.5 -20.5t-66.5 -50.5l-39 -38v304h-86v-938zM180 78v282l31 31q23 23 65 54.5t83 31.5q35 0 60.5 -23t25.5 -87v-86q0 -94 -58 -148.5t-145 -54.5h-62z" />
    <glyph glyph-name="ydieresis" unicode="&#xff;" horiz-adv-x="613" 
d="M129 -188h94q140 0 218.5 66.5t78.5 207.5v461h-86v-367q-24 -12 -67.5 -25.5t-89.5 -13.5q-47 0 -74 26t-27 91v289h-86v-289q0 -106 49.5 -150.5t114.5 -44.5q58 0 102.5 15t69.5 27l8 4v-31q0 -93 -50 -140t-161 -47h-94v-79zM383 625h86v94h-86v-94zM141 625h86v94
h-86v-94z" />
    <glyph glyph-name="OE" unicode="&#x152;" horiz-adv-x="984" 
d="M367 0h555v82h-328v273h297v83h-297v230h328v82h-555q-138 0 -225 -94t-87 -258v-46q0 -171 79.5 -264.5t232.5 -87.5v0zM367 82q-108 0 -163.5 64.5t-55.5 205.5v46q0 141 58.5 205.5t160.5 64.5h133v-586h-133z" />
    <glyph glyph-name="oe" unicode="&#x153;" horiz-adv-x="918" 
d="M293 -8q64 0 110 22.5t76 66.5q30 -47 82.5 -68t118.5 -21q46 0 92 13t64 22v78h-8q-18 -9 -60 -22t-88 -13q-65 0 -107 32t-42 109v31h164q82 0 127 41.5t45 114.5q0 82 -53 119.5t-134 37.5q-62 0 -113 -24.5t-82 -68.5q-27 44 -74.5 68.5t-117.5 24.5
q-120 0 -179 -75.5t-59 -198.5q0 -135 56 -212t182 -77v0zM531 313v7q0 82 39 119.5t110 37.5q46 0 73.5 -17.5t27.5 -61.5q0 -41 -22.5 -63t-86.5 -22h-141zM293 70q-88 0 -120 60t-32 151q0 90 32 143t120 53q87 0 119.5 -53t32.5 -143q0 -91 -32.5 -151t-119.5 -60v0z
" />
    <glyph glyph-name="Scaron" unicode="&#x160;" horiz-adv-x="586" 
d="M250 -8h31q117 0 183.5 57t66.5 154q0 108 -55.5 149.5t-112.5 57.5l-97 28q-46 12 -78 35t-32 82q0 64 39 92.5t110 28.5h23q38 0 87.5 -9.5t76.5 -18.5h8v79q-24 11 -77.5 21t-94.5 10h-23q-112 0 -177 -56.5t-65 -146.5q0 -100 55 -143.5t109 -56.5l101 -27
q51 -13 80.5 -38.5t29.5 -86.5q0 -71 -43.5 -100t-113.5 -29h-31q-44 0 -101.5 11t-85.5 20h-8v-82q23 -9 85.5 -20t109.5 -11v0zM248 805h94l125 140v16h-63l-109 -113l-109 113h-63v-14z" />
    <glyph glyph-name="scaron" unicode="&#x161;" horiz-adv-x="516" 
d="M234 -8q85 0 152 36.5t67 127.5q0 79 -44.5 112t-107.5 48l-67 16q-33 8 -55.5 18t-22.5 48q0 41 31.5 60t93.5 19q39 0 72.5 -5t64.5 -11h8v78q-30 6 -67 11t-78 5q-97 0 -154 -42t-57 -115q0 -64 36.5 -98t92.5 -46l82 -20q34 -8 60 -25.5t26 -52.5q0 -47 -34.5 -66.5
t-98.5 -19.5q-39 0 -79.5 5.5t-72.5 14.5h-8v-78q29 -9 74 -14.5t86 -5.5v0zM213 625h94l125 141v15h-63l-109 -113l-110 113h-62v-13z" />
    <glyph glyph-name="Ydieresis" unicode="&#x178;" horiz-adv-x="602" 
d="M258 0h94v309l238 433v8h-90l-191 -359l-192 359h-97v-8l238 -441v-301zM377 805h86v93h-86v-93zM135 805h86v93h-86v-93z" />
    <glyph glyph-name="Zcaron" unicode="&#x17d;" horiz-adv-x="609" 
d="M47 0h516v82h-383q78 105 201 306.5t174 330.5v31h-492v-82h371q-51 -129 -178.5 -324.5t-208.5 -300.5v-43zM260 805h94l125 140v16h-63l-109 -113l-110 113h-62v-14z" />
    <glyph glyph-name="zcaron" unicode="&#x17e;" horiz-adv-x="523" 
d="M55 0h414v78h-305q58 52 162.5 187t134.5 212v70h-391v-78h293q-53 -94 -146 -211.5t-162 -187.5v-70zM217 625h94l125 141v15h-63l-109 -113l-110 113h-62v-13z" />
    <glyph glyph-name="florin" unicode="&#x192;" 
d="M31 -188h94q105 0 162 57t57 162v324h187v83h-187v93q0 70 24 103.5t101 33.5h94v82h-94q-112 0 -165.5 -58.5t-53.5 -160.5v-93h-125v-83h125v-324q0 -70 -27.5 -103t-97.5 -33h-94v-83z" />
    <glyph glyph-name="circumflex" unicode="&#x2c6;" horiz-adv-x="586" 
d="M109 609h63l109 114l110 -114h62v14l-125 143h-94l-125 -141v-16z" />
    <glyph glyph-name="tilde" unicode="&#x2dc;" horiz-adv-x="586" 
d="M125 625h8q17 26 38.5 52t51.5 26q26 0 67.5 -39t80.5 -39q35 0 60.5 28.5t37.5 49.5v63h-8q-18 -27 -39.5 -52.5t-50.5 -25.5q-27 0 -67.5 39t-80.5 39q-36 0 -61 -29t-37 -49v-63z" />
    <glyph glyph-name="endash" unicode="&#x2013;" horiz-adv-x="500" 
d="M31 328h438v78h-438v-78z" />
    <glyph glyph-name="emdash" unicode="&#x2014;" horiz-adv-x="1000" 
d="M31 328h938v78h-938v-78z" />
    <glyph glyph-name="quoteleft" unicode="&#x2018;" horiz-adv-x="273" 
d="M90 531h94l58 219h-58l-94 -172v-47z" />
    <glyph glyph-name="quoteright" unicode="&#x2019;" horiz-adv-x="273" 
d="M31 531h59l94 172v47h-94z" />
    <glyph glyph-name="quotesinglbase" unicode="&#x201a;" horiz-adv-x="273" 
d="M31 -125h59l94 172v47h-94z" />
    <glyph glyph-name="quotedblleft" unicode="&#x201c;" horiz-adv-x="461" 
d="M277 531h94l59 219h-59l-94 -172v-47zM90 531h94l58 219h-58l-94 -172v-47z" />
    <glyph glyph-name="quotedblright" unicode="&#x201d;" horiz-adv-x="461" 
d="M219 531h58l94 172v47h-94zM31 531h59l94 172v47h-94z" />
    <glyph glyph-name="quotedblbase" unicode="&#x201e;" horiz-adv-x="461" 
d="M219 -125h58l94 172v47h-94zM31 -125h59l94 172v47h-94z" />
    <glyph glyph-name="dagger" unicode="&#x2020;" horiz-adv-x="516" 
d="M215 -125h86v594h152v78h-152v203h-86v-203h-152v-78h152v-594z" />
    <glyph glyph-name="daggerdbl" unicode="&#x2021;" horiz-adv-x="516" 
d="M301 78h152v78h-152v313h152v78h-152v203h-86v-203h-152v-78h152v-313h-152v-78h152v-203h86v203z" />
    <glyph glyph-name="bullet" unicode="&#x2022;" horiz-adv-x="500" 
d="M250 125q70 0 129 47t59 141q0 93 -59 140t-129 47q-71 0 -129 -47t-58 -140q0 -94 58 -141t129 -47v0z" />
    <glyph glyph-name="ellipsis" unicode="&#x2026;" horiz-adv-x="832" 
d="M648 0h94v94h-94v-94zM367 0h94v94h-94v-94zM90 0h94v94h-94v-94z" />
    <glyph glyph-name="perthousand" unicode="&#x2030;" horiz-adv-x="1320" 
d="M238 328q90 0 137 55.5t47 155.5q0 99 -47 155t-137 56q-91 0 -137 -56t-46 -155q0 -100 46 -155.5t137 -55.5v0zM254 0h55l375 738v12h-55l-375 -738v-12zM1113 0q90 0 137 55.5t47 155.5q0 99 -47 155t-137 56q-91 0 -137 -56t-46 -155q0 -100 46 -155.5t137 -55.5v0z
M699 0q90 0 137 55.5t47 155.5q0 99 -47 155t-137 56q-91 0 -137 -56t-46 -155q0 -100 46 -155.5t137 -55.5v0zM238 387q-59 0 -84 40.5t-25 111.5q0 70 25 111t84 41q58 0 84 -41t26 -111q0 -71 -26 -111.5t-84 -40.5v0zM1113 59q-59 0 -84 40.5t-25 111.5q0 70 25 111
t84 41q58 0 84 -41t26 -111q0 -71 -26 -111.5t-84 -40.5v0zM699 59q-59 0 -84 40.5t-25 111.5q0 70 25 111t84 41q58 0 84 -41t26 -111q0 -71 -26 -111.5t-84 -40.5v0z" />
    <glyph glyph-name="guilsinglleft" unicode="&#x2039;" horiz-adv-x="336" 
d="M273 125h8v94l-140 117l140 117v94h-8l-210 -180v-61z" />
    <glyph glyph-name="guilsinglright" unicode="&#x203a;" horiz-adv-x="336" 
d="M55 125h8l210 181v61l-210 180h-8v-94l140 -117l-140 -117v-94z" />
    <glyph glyph-name="trademark" unicode="&#x2122;" horiz-adv-x="758" 
d="M336 352h70v242l86 -117h31l86 125v-250h71v398h-55l-112 -176l-122 176h-55v-398zM121 352h70v339h98v59h-266v-59h98v-339z" />
  </font>
</defs>
</svg>
